<svg width="360" height="1032" viewBox="0 0 360 1032" fill="none" xmlns="http://www.w3.org/2000/svg">
<rect width="360" height="1032" fill="#498EF6" fill-opacity="0.8"/>
<rect opacity="0.2" x="101.5" y="82.5" width="24" height="12" transform="rotate(90 101.5 82.5)" stroke="#0061F3" stroke-width="5"/>
<circle opacity="0.1" cx="11" cy="239" r="84.5" stroke="white" stroke-width="59"/>
<g style="mix-blend-mode:multiply" opacity="0.1">
<circle cx="334" cy="616" r="97.5" stroke="#0061F3" stroke-width="69"/>
</g>
<circle opacity="0.1" cx="337" cy="128" r="56" stroke="#0061F3" stroke-width="42"/>
<g opacity="0.3">
<mask id="mask0_342_737" style="mask-type:alpha" maskUnits="userSpaceOnUse" x="175" y="516" width="113" height="113">
<circle cx="231.5" cy="572.5" r="56.5" fill="#D9D9D9"/>
</mask>
<g mask="url(#mask0_342_737)">
<line x1="290.527" y1="388.142" x2="139.136" y2="539.533" stroke="white"/>
<line x1="290.527" y1="394.661" x2="139.136" y2="546.052" stroke="white"/>
<line x1="290.527" y1="401.181" x2="139.136" y2="552.572" stroke="white"/>
<line x1="290.527" y1="407.7" x2="139.136" y2="559.091" stroke="white"/>
<line x1="290.527" y1="414.219" x2="139.136" y2="565.61" stroke="white"/>
<line x1="290.527" y1="420.738" x2="139.136" y2="572.129" stroke="white"/>
<line x1="290.527" y1="427.257" x2="139.136" y2="578.648" stroke="white"/>
<line x1="290.527" y1="433.777" x2="139.136" y2="585.168" stroke="white"/>
<line x1="290.527" y1="440.296" x2="139.136" y2="591.687" stroke="white"/>
<line x1="290.527" y1="446.815" x2="139.136" y2="598.206" stroke="white"/>
<line x1="290.527" y1="453.335" x2="139.136" y2="604.726" stroke="white"/>
<line x1="290.527" y1="459.854" x2="139.136" y2="611.245" stroke="white"/>
<line x1="290.527" y1="466.373" x2="139.136" y2="617.764" stroke="white"/>
<line x1="290.527" y1="472.892" x2="139.136" y2="624.283" stroke="white"/>
<line x1="290.527" y1="479.411" x2="139.136" y2="630.802" stroke="white"/>
<line x1="290.527" y1="485.931" x2="139.136" y2="637.322" stroke="white"/>
<line x1="290.527" y1="492.45" x2="139.136" y2="643.841" stroke="white"/>
<line x1="290.527" y1="498.969" x2="139.136" y2="650.36" stroke="white"/>
<line x1="290.527" y1="505.488" x2="139.136" y2="656.879" stroke="white"/>
<line x1="290.527" y1="512.007" x2="139.136" y2="663.398" stroke="white"/>
<line x1="290.527" y1="518.527" x2="139.136" y2="669.918" stroke="white"/>
<line x1="290.527" y1="525.046" x2="139.136" y2="676.437" stroke="white"/>
<line x1="290.527" y1="531.565" x2="139.136" y2="682.956" stroke="white"/>
<line x1="290.527" y1="538.085" x2="139.136" y2="689.476" stroke="white"/>
<line x1="290.527" y1="544.604" x2="139.136" y2="695.995" stroke="white"/>
<line x1="290.527" y1="551.123" x2="139.136" y2="702.514" stroke="white"/>
<line x1="290.527" y1="557.642" x2="139.136" y2="709.033" stroke="white"/>
<line x1="290.527" y1="564.161" x2="139.136" y2="715.552" stroke="white"/>
<line x1="290.527" y1="570.681" x2="139.136" y2="722.072" stroke="white"/>
<line x1="290.527" y1="577.2" x2="139.136" y2="728.591" stroke="white"/>
<line x1="290.527" y1="583.719" x2="139.136" y2="735.11" stroke="white"/>
<line x1="290.527" y1="590.238" x2="139.136" y2="741.629" stroke="white"/>
<line x1="290.527" y1="596.757" x2="139.136" y2="748.148" stroke="white"/>
<line x1="290.527" y1="603.277" x2="139.136" y2="754.668" stroke="white"/>
<line x1="290.527" y1="609.796" x2="139.136" y2="761.187" stroke="white"/>
<line x1="290.527" y1="616.315" x2="139.136" y2="767.706" stroke="white"/>
<line x1="290.527" y1="622.835" x2="139.136" y2="774.226" stroke="white"/>
</g>
</g>
<g opacity="0.3">
<mask id="mask1_342_737" style="mask-type:alpha" maskUnits="userSpaceOnUse" x="40" y="194" width="136" height="136">
<circle cx="108" cy="262" r="68" fill="#D9D9D9"/>
</mask>
<g mask="url(#mask1_342_737)">
<line x1="178.969" y1="40.0459" x2="-3.23634" y2="222.251" stroke="white"/>
<line x1="178.969" y1="47.8921" x2="-3.23634" y2="230.097" stroke="white"/>
<line x1="178.969" y1="55.7383" x2="-3.23634" y2="237.943" stroke="white"/>
<line x1="178.969" y1="63.5845" x2="-3.23634" y2="245.79" stroke="white"/>
<line x1="178.969" y1="71.4307" x2="-3.23634" y2="253.636" stroke="white"/>
<line x1="178.969" y1="79.2769" x2="-3.23634" y2="261.482" stroke="white"/>
<line x1="178.969" y1="87.1231" x2="-3.23634" y2="269.328" stroke="white"/>
<line x1="178.969" y1="94.9693" x2="-3.23634" y2="277.174" stroke="white"/>
<line x1="178.969" y1="102.815" x2="-3.23634" y2="285.02" stroke="white"/>
<line x1="178.969" y1="110.661" x2="-3.23634" y2="292.866" stroke="white"/>
<line x1="178.969" y1="118.507" x2="-3.23634" y2="300.712" stroke="white"/>
<line x1="178.969" y1="126.354" x2="-3.23634" y2="308.559" stroke="white"/>
<line x1="178.969" y1="134.2" x2="-3.23634" y2="316.405" stroke="white"/>
<line x1="178.969" y1="142.046" x2="-3.23634" y2="324.251" stroke="white"/>
<line x1="178.969" y1="149.892" x2="-3.23634" y2="332.097" stroke="white"/>
<line x1="178.969" y1="157.738" x2="-3.23634" y2="339.943" stroke="white"/>
<line x1="178.969" y1="165.585" x2="-3.23634" y2="347.79" stroke="white"/>
<line x1="178.969" y1="173.431" x2="-3.23634" y2="355.636" stroke="white"/>
<line x1="178.969" y1="181.277" x2="-3.23634" y2="363.482" stroke="white"/>
<line x1="178.969" y1="189.123" x2="-3.23634" y2="371.328" stroke="white"/>
<line x1="178.969" y1="196.969" x2="-3.23634" y2="379.174" stroke="white"/>
<line x1="178.969" y1="204.815" x2="-3.23634" y2="387.02" stroke="white"/>
<line x1="178.969" y1="212.661" x2="-3.23634" y2="394.866" stroke="white"/>
<line x1="178.969" y1="220.507" x2="-3.23634" y2="402.712" stroke="white"/>
<line x1="178.969" y1="228.354" x2="-3.23634" y2="410.559" stroke="white"/>
<line x1="178.969" y1="236.2" x2="-3.23634" y2="418.405" stroke="white"/>
<line x1="178.969" y1="244.046" x2="-3.23634" y2="426.251" stroke="white"/>
<line x1="178.969" y1="251.892" x2="-3.23634" y2="434.097" stroke="white"/>
<line x1="178.969" y1="259.738" x2="-3.23634" y2="441.943" stroke="white"/>
<line x1="178.969" y1="267.585" x2="-3.23634" y2="449.79" stroke="white"/>
<line x1="178.969" y1="275.431" x2="-3.23634" y2="457.636" stroke="white"/>
<line x1="178.969" y1="283.277" x2="-3.23634" y2="465.482" stroke="white"/>
<line x1="178.969" y1="291.123" x2="-3.23634" y2="473.328" stroke="white"/>
<line x1="178.969" y1="298.969" x2="-3.23634" y2="481.174" stroke="white"/>
<line x1="178.969" y1="306.815" x2="-3.23634" y2="489.02" stroke="white"/>
<line x1="178.969" y1="314.661" x2="-3.23634" y2="496.866" stroke="white"/>
<line x1="178.969" y1="322.507" x2="-3.23634" y2="504.712" stroke="white"/>
</g>
</g>
<path d="M141.092 119V108.395H143.289V112.789H147.889V108.395H150.101V119H147.889V114.605H143.289V119H141.092ZM155.418 119.161C153.016 119.154 151.514 117.506 151.521 115.045C151.514 112.591 153.016 110.943 155.418 110.943C157.828 110.943 159.322 112.591 159.329 115.045C159.322 117.506 157.828 119.154 155.418 119.161ZM153.719 115.045C153.719 116.437 154.297 117.469 155.433 117.477C156.539 117.469 157.125 116.437 157.117 115.045C157.125 113.646 156.539 112.599 155.433 112.599C154.297 112.599 153.719 113.646 153.719 115.045ZM162.054 119L159.886 111.046H162.083L163.328 116.422H163.401L164.705 111.046H166.858L168.177 116.393H168.25L169.48 111.046H171.678L169.495 119H167.21L165.833 113.946H165.73L164.354 119H162.054ZM180.423 111.046V112.672H178.929V116.554C178.921 117.191 179.236 117.345 179.676 117.359C179.896 117.359 180.276 117.337 180.54 117.315V119.029C180.306 119.066 179.917 119.11 179.383 119.103C177.815 119.11 176.746 118.407 176.761 116.861V112.672H175.662V111.046H176.761V109.142H178.929V111.046H180.423ZM185.271 119.161C182.869 119.154 181.368 117.506 181.375 115.045C181.368 112.591 182.869 110.943 185.271 110.943C187.681 110.943 189.175 112.591 189.183 115.045C189.175 117.506 187.681 119.154 185.271 119.161ZM183.572 115.045C183.572 116.437 184.151 117.469 185.286 117.477C186.392 117.469 186.978 116.437 186.971 115.045C186.978 113.646 186.392 112.599 185.286 112.599C184.151 112.599 183.572 113.646 183.572 115.045ZM199.1 115.616V111.046H201.268V119H199.188V117.564H199.1C198.741 118.487 197.884 119.103 196.683 119.103C195.093 119.103 194.002 117.975 194.002 116.114V111.046H196.17V115.733C196.17 116.678 196.712 117.264 197.562 117.271C198.353 117.264 199.1 116.7 199.1 115.616ZM207.493 113.404C207.398 112.848 206.915 112.489 206.189 112.481C205.486 112.489 204.952 112.818 204.959 113.302C204.952 113.661 205.23 113.939 205.984 114.093L207.405 114.386C208.951 114.708 209.698 115.396 209.705 116.539C209.698 118.106 208.292 119.154 206.175 119.161C204.029 119.154 202.769 118.194 202.586 116.642H204.769C204.871 117.264 205.376 117.586 206.175 117.594C206.966 117.586 207.493 117.271 207.493 116.759C207.493 116.349 207.156 116.092 206.409 115.938L205.091 115.675C203.575 115.375 202.798 114.598 202.806 113.419C202.798 111.896 204.109 110.943 206.16 110.943C208.167 110.943 209.412 111.896 209.529 113.404H207.493ZM214.642 119.161C212.203 119.154 210.708 117.579 210.716 115.06C210.708 112.606 212.225 110.943 214.554 110.943C216.641 110.943 218.289 112.262 218.289 114.972V115.587H212.854C212.854 116.788 213.565 117.528 214.686 117.535C215.425 117.528 215.953 117.206 216.165 116.729H218.23C217.923 118.202 216.604 119.154 214.642 119.161ZM212.854 114.225H216.238C216.231 113.258 215.564 112.562 214.598 112.569C213.602 112.562 212.898 113.309 212.854 114.225Z" fill="#1F314E" fill-opacity="0.6"/>
<path d="M137.773 136.551V154.844H133.863V146.066H130.09V142.895H133.863V136.551H137.773ZM116.309 148.992C120.588 147.693 122.201 144.439 122.215 141.336V141.281H117.402V138.137H131.02V141.281H126.234V141.363C126.234 144.193 127.793 147.283 131.867 148.582L129.953 151.699C127.205 150.824 125.359 149.102 124.279 146.941C123.172 149.334 121.244 151.234 118.332 152.164L116.309 148.992ZM120.957 161.215V153.258H124.895V158.07H138.348V161.215H120.957ZM148.957 142.566C148.957 146.668 149.818 150.824 153.305 153.094L151.172 156.129C149.107 154.885 147.822 152.902 147.043 150.537C146.182 153.176 144.76 155.391 142.586 156.703L140.207 153.777C143.994 151.412 145.129 146.996 145.129 142.758V138.602H148.957V142.566ZM150.68 148.008V144.809H153.605V136.852H157.27V160.504H153.605V148.008H150.68ZM158.773 161.625V136.523H162.547V161.625H158.773ZM184.613 139.695C184.6 143.195 187.32 147.16 193.418 148.172L191.695 151.426C187.197 150.578 184.121 148.199 182.508 145.137C180.881 148.172 177.777 150.564 173.32 151.426L171.652 148.172C177.613 147.133 180.375 143.141 180.402 139.695V137.945H184.613V139.695ZM171.188 158.645V155.418H194.129V158.645H171.188ZM217.207 136.523V161.625H213.434V149.102H211.52V160.559H207.855V137.043H211.52V145.93H213.434V136.523H217.207ZM195.223 154.133C198.285 152.342 200.213 150.414 201.389 148.145L195.961 148.746L195.523 145.41L202.482 145.082C202.66 144.289 202.783 143.455 202.865 142.566H196.836V139.422H206.68C206.652 146.777 204.971 152.533 197.465 156.867L195.223 154.133ZM240.914 136.523V161.68H236.977V147.297H230.441V144.125H236.977V136.523H240.914ZM220.844 155.828V139.176H224.809V152.547C227.83 152.479 231.029 152.205 234.297 151.562L234.707 154.789C230.646 155.637 226.682 155.842 223.031 155.828H220.844ZM70.7949 174.203V194H66.1191V178.578H66.0098L61.5527 181.312V177.266L66.4473 174.203H70.7949ZM78.998 191.922L76.5645 199.824H73.3652L74.6777 191.922H78.998ZM89.6895 194.273C84.5488 194.273 81.4043 190.596 81.4043 184.102C81.4043 177.607 84.5488 173.93 89.6895 173.93C94.8301 173.93 97.9883 177.635 97.9746 184.102C97.9883 190.609 94.8301 194.273 89.6895 194.273ZM86.1895 184.102C86.1758 188.49 87.584 190.473 89.6895 190.473C91.7949 190.473 93.2031 188.49 93.1895 184.102C93.1895 179.781 91.7949 177.717 89.6895 177.703C87.5977 177.717 86.2031 179.781 86.1895 184.102ZM108.775 194.273C103.635 194.273 100.49 190.596 100.49 184.102C100.49 177.607 103.635 173.93 108.775 173.93C113.916 173.93 117.074 177.635 117.061 184.102C117.074 190.609 113.916 194.273 108.775 194.273ZM105.275 184.102C105.262 188.49 106.67 190.473 108.775 190.473C110.881 190.473 112.289 188.49 112.275 184.102C112.275 179.781 110.881 177.717 108.775 177.703C106.684 177.717 105.289 179.781 105.275 184.102ZM127.861 194.273C122.721 194.273 119.576 190.596 119.576 184.102C119.576 177.607 122.721 173.93 127.861 173.93C133.002 173.93 136.16 177.635 136.146 184.102C136.16 190.609 133.002 194.273 127.861 194.273ZM124.361 184.102C124.348 188.49 125.756 190.473 127.861 190.473C129.967 190.473 131.375 188.49 131.361 184.102C131.361 179.781 129.967 177.717 127.861 177.703C125.77 177.717 124.375 179.781 124.361 184.102ZM144.377 184.32C141.301 184.334 139.633 182.092 139.646 178.879C139.633 175.639 141.383 173.396 144.377 173.41C147.494 173.396 149.148 175.639 149.162 178.879C149.148 182.133 147.453 184.334 144.377 184.32ZM142.709 178.879C142.695 180.547 143.311 181.641 144.377 181.641C145.525 181.641 146.086 180.547 146.1 178.879C146.086 177.225 145.566 176.076 144.377 176.09C143.27 176.09 142.695 177.252 142.709 178.879ZM142.764 194L156.381 174.203H159.717L146.1 194H142.764ZM153.455 189.324C153.441 186.084 155.178 183.842 158.186 183.855C161.289 183.842 162.943 186.084 162.943 189.324C162.943 192.578 161.248 194.779 158.186 194.793C155.109 194.779 153.441 192.537 153.455 189.324ZM156.49 189.324C156.504 190.992 157.105 192.086 158.186 192.086C159.32 192.086 159.895 190.992 159.908 189.324C159.895 187.67 159.375 186.521 158.186 186.535C157.078 186.535 156.504 187.697 156.49 189.324ZM192.311 171.523V177.293H195.346V180.574H192.311V186.289H188.373V171.523H192.311ZM171.775 183.473C173.553 183.473 175.562 183.473 177.654 183.418V182.447C174.975 182.105 173.334 180.971 173.334 179.207C173.334 177.184 175.781 175.98 179.568 175.98C183.355 175.98 185.803 177.184 185.803 179.207C185.803 180.957 184.189 182.078 181.564 182.447V183.281C183.52 183.186 185.488 183.021 187.334 182.789L187.607 185.195C182.289 186.098 176.533 186.125 172.186 186.125L171.775 183.473ZM172.432 175.598V173H177.654V171.332H181.564V173H186.732V175.598H172.432ZM175.111 189.68V187.109H192.311V192.906H179.076V193.891H193.104V196.488H175.139V190.555H188.373V189.68H175.111ZM177.107 179.207C177.094 179.85 177.969 180.123 179.568 180.137C181.168 180.123 182.029 179.85 182.029 179.207C182.029 178.619 181.168 178.4 179.568 178.387C177.969 178.4 177.094 178.619 177.107 179.207ZM219.189 183.254V186.398H196.303V183.254H201.279V180.396C199.516 179.576 198.504 178.332 198.518 176.746C198.504 173.711 202.127 171.865 207.732 171.852C213.311 171.865 216.934 173.711 216.947 176.746C216.934 178.373 215.895 179.631 214.049 180.451V183.254H219.189ZM198.873 192.031C198.873 189.105 202.182 187.492 207.705 187.492C213.133 187.492 216.455 189.105 216.455 192.031C216.455 194.998 213.133 196.598 207.705 196.598C202.182 196.598 198.873 194.998 198.873 192.031ZM202.619 176.746C202.592 178.004 204.383 178.578 207.732 178.578C211.055 178.578 212.873 178.004 212.873 176.746C212.873 175.488 211.055 174.873 207.732 174.887C204.383 174.873 202.592 175.488 202.619 176.746ZM202.893 192.031C202.865 193.152 204.41 193.686 207.705 193.672C210.918 193.686 212.504 193.152 212.518 192.031C212.504 190.924 210.918 190.459 207.705 190.445C204.41 190.459 202.865 190.924 202.893 192.031ZM205.271 183.254H210.111V181.408C209.373 181.49 208.566 181.531 207.732 181.531C206.857 181.531 206.037 181.49 205.271 181.408V183.254ZM240.408 171.523V181.176H243.963V184.43H240.408V196.625H236.525V171.523H240.408ZM220.365 178.305V175.188H225.807V171.934H229.744V175.188H235.049V178.305H220.365ZM221.268 185.551C221.24 182.01 224.016 179.494 227.775 179.508C231.439 179.494 234.242 182.01 234.256 185.551C234.242 189.092 231.439 191.594 227.775 191.594C224.016 191.594 221.24 189.092 221.268 185.551ZM225.041 185.551C225.014 187.396 226.162 188.408 227.775 188.395C229.334 188.408 230.469 187.396 230.482 185.551C230.469 183.746 229.334 182.693 227.775 182.68C226.162 182.693 225.014 183.746 225.041 185.551ZM265.1 178.141V181.203H247.463V172.426H251.373V178.141H265.1ZM244.674 186.727V183.637H267.615V186.727H244.674ZM247.217 196.078V188.613H251.154V192.934H265.264V196.078H247.217ZM280.139 172.809V175.789H284.404V172.809H288.287V177.129H292.498V171.523H296.408V185.277H292.498V180.328H288.287V184.621H276.174V172.809H280.139ZM279.51 196.297V186.262H283.393V188.312H292.498V186.262H296.408V196.297H279.51ZM280.139 181.477H284.404V178.797H280.139V181.477ZM283.393 193.152H292.498V191.32H283.393V193.152Z" fill="white"/>
<g filter="url(#filter0_d_342_737)">
<rect x="50" y="260" width="260" height="175" rx="10" fill="white" shape-rendering="crispEdges"/>
<path d="M161.454 295.932C161.372 295.146 160.75 294.688 159.745 294.688C158.706 294.688 158.125 295.166 158.118 295.822C158.111 296.54 158.85 296.861 159.704 297.053L160.593 297.271C162.288 297.661 163.553 298.522 163.56 300.17C163.553 301.981 162.145 303.144 159.731 303.137C157.339 303.144 155.814 302.036 155.753 299.91H157.749C157.817 300.908 158.61 301.414 159.704 301.414C160.784 301.414 161.481 300.908 161.481 300.17C161.481 299.493 160.866 299.179 159.786 298.912L158.706 298.652C157.038 298.242 156.013 297.408 156.013 295.959C156.006 294.161 157.592 292.965 159.759 292.965C161.953 292.965 163.396 294.182 163.423 295.932H161.454ZM168.769 295.576V297.094H167.374V300.717C167.367 301.312 167.661 301.455 168.071 301.469C168.276 301.469 168.632 301.448 168.878 301.428V303.027C168.659 303.062 168.297 303.103 167.798 303.096C166.335 303.103 165.337 302.446 165.351 301.004V297.094H164.325V295.576H165.351V293.799H167.374V295.576H168.769ZM173.321 303.15C171.045 303.144 169.65 301.674 169.657 299.322C169.65 297.032 171.065 295.48 173.239 295.48C175.188 295.48 176.726 296.711 176.726 299.24V299.814H171.653C171.653 300.936 172.316 301.626 173.362 301.633C174.053 301.626 174.545 301.325 174.743 300.881H176.671C176.384 302.255 175.153 303.144 173.321 303.15ZM171.653 298.543H174.812C174.805 297.641 174.183 296.991 173.28 296.998C172.351 296.991 171.694 297.688 171.653 298.543ZM177.997 305.789V295.576H179.993V296.82H180.075C180.355 296.219 180.943 295.48 182.194 295.48C183.835 295.48 185.209 296.752 185.202 299.295C185.209 301.776 183.89 303.123 182.194 303.123C180.984 303.123 180.362 302.426 180.075 301.811H180.021V305.789H177.997ZM179.979 299.281C179.973 300.621 180.547 301.503 181.552 301.51C182.584 301.503 183.145 300.594 183.138 299.281C183.145 297.989 182.598 297.094 181.552 297.094C180.54 297.094 179.973 297.948 179.979 299.281ZM193.569 303.137C191.088 303.137 189.591 301.291 189.591 298.051C189.591 294.817 191.102 292.965 193.569 292.965C196.037 292.965 197.548 294.817 197.548 298.051C197.548 301.305 196.044 303.137 193.569 303.137ZM191.696 298.051C191.683 300.334 192.421 301.441 193.569 301.441C194.718 301.441 195.449 300.334 195.442 298.051C195.449 295.788 194.711 294.653 193.569 294.646C192.428 294.653 191.696 295.788 191.696 298.051ZM203.235 293.102V303H201.171V295.057H201.116L198.847 296.479V294.66L201.294 293.102H203.235Z" fill="#498EF7"/>
<path d="M108.291 316.215V317.406C108.281 318.676 108.281 320.453 107.9 322.641L105.146 322.387C105.439 320.785 105.518 319.545 105.547 318.5H98.9746V316.215H108.291ZM97.9395 323.832C98.8867 323.832 99.9609 323.822 101.084 323.803V320.414H103.877V323.725C105.605 323.646 107.363 323.51 108.994 323.266L109.131 325.277C105.42 325.98 101.26 326.049 98.1738 326.039L97.9395 323.832ZM100.518 332.582V327.152H103.35V330.336H113.311V332.582H100.518ZM109.873 328.344V314.945H112.764V320.297H114.795V322.621H112.764V328.344H109.873ZM130.557 314.965V325.062H127.744V314.965H130.557ZM115.361 322.582C118.467 321.684 119.6 319.438 119.6 317.328V315.609H122.529V317.328C122.51 319.398 123.643 321.43 126.611 322.309L125.264 324.457C123.232 323.881 121.875 322.719 121.074 321.225C120.264 322.855 118.848 324.154 116.729 324.789L115.361 322.582ZM118.447 332.68V325.824H130.557V332.68H118.447ZM121.201 330.434H127.803V328.031H121.201V330.434ZM152.842 314.945V332.875H150.146V323.988H148.818V332.074H146.162V315.18H148.818V321.703H150.146V314.945H152.842ZM137.705 328.461V316.742H144.912V328.461H137.705ZM140.342 326.273H142.295V318.93H140.342V326.273ZM170.889 321.918V324.125H164.092V325.062H168.936V329.848H159.17V330.668H169.365V332.777H156.396V327.875H166.143V327.172H156.396V325.062H161.26V324.125H154.541V321.918H170.889ZM156.533 321.156V315.453H168.838V321.156H156.533ZM159.287 319.008H166.025V317.621H159.287V319.008ZM179.99 315.18C184.16 315.189 186.562 316.264 186.572 318.227C186.562 320.219 184.16 321.283 179.99 321.293C175.811 321.283 173.398 320.219 173.408 318.227C173.398 316.264 175.811 315.189 179.99 315.18ZM171.826 324.242V322.016H188.174V324.242H171.826ZM173.682 332.777V327.895H183.428V327.133H173.682V325.102H186.221V329.848H176.455V330.668H186.65V332.777H173.682ZM176.357 318.227C176.348 318.988 177.471 319.223 179.99 319.242C182.539 319.223 183.662 318.988 183.662 318.227C183.662 317.562 182.539 317.23 179.99 317.23C177.471 317.23 176.348 317.562 176.357 318.227ZM202.881 315.961C202.891 320.707 200.01 323.959 194.736 325.414L193.643 323.227C197.373 322.24 199.434 320.395 199.863 318.188H194.639V315.961H202.881ZM196.807 332.66V325.629H208.76V332.66H196.807ZM199.561 330.473H205.967V327.816H199.561V330.473ZM203.018 321.391V319.105H205.967V314.965H208.76V324.926H205.967V321.391H203.018ZM216.729 317.934C216.719 319.877 217.559 321.752 219.834 322.738V315.238H222.432V319.223H223.643V314.965H226.318V325.824H223.643V321.508H222.432V325.746H219.834V322.992L218.486 324.945C217.021 324.359 216.016 323.334 215.381 322.064C214.736 323.539 213.643 324.75 212.021 325.414L210.518 323.246C213.105 322.152 213.975 319.955 213.975 317.934V315.98H216.729V317.934ZM213.838 328.793V326.547H226.318V332.875H223.506V328.793H213.838ZM236.689 317.562V319.789H228.135V317.562H231.064V315.434H233.838V317.562H236.689ZM228.486 324.77C228.477 322.25 230.166 320.473 232.471 320.473C234.766 320.473 236.406 322.25 236.416 324.77C236.406 327.309 234.766 329.105 232.471 329.105C230.166 329.105 228.477 327.309 228.486 324.77ZM230.947 324.77C230.947 326.068 231.553 326.732 232.471 326.723C233.34 326.732 233.945 326.068 233.955 324.77C233.945 323.5 233.34 322.787 232.471 322.797C231.553 322.787 230.947 323.5 230.947 324.77ZM237.275 332.133V315.277H239.893V322.152H241.045V314.945H243.721V332.875H241.045V324.398H239.893V332.133H237.275ZM261.826 328.559V330.844H245.439V328.559H248.975V324.301C247.627 323.451 246.816 322.182 246.826 320.609C246.816 317.689 249.697 315.746 253.604 315.746C257.5 315.746 260.41 317.689 260.42 320.609C260.41 322.152 259.629 323.402 258.33 324.242V328.559H261.826ZM249.619 320.609C249.609 322.309 251.162 323.305 253.604 323.305C256.025 323.305 257.627 322.309 257.627 320.609C257.627 318.891 256.025 317.943 253.604 317.953C251.162 317.943 249.609 318.891 249.619 320.609ZM251.748 328.559H255.479V325.316C254.893 325.414 254.258 325.473 253.604 325.473C252.949 325.473 252.334 325.414 251.748 325.316V328.559Z" fill="#1F314E"/>
<path d="M105.836 353.203C105.836 356.766 103.391 359.289 99.3359 360.438L98.7266 359.281C101.961 358.375 103.961 356.633 104.25 354.422H99.4609V353.203H105.836ZM101.117 366.141V360.844H110.273V366.141H101.117ZM102.57 364.953H108.805V362.031H102.57V364.953ZM105.898 357.078V355.844H108.789V352.344H110.273V360.266H108.789V357.078H105.898ZM116.711 354.969C116.711 356.547 117.68 358.117 119.492 358.828L118.695 359.969C117.414 359.453 116.5 358.484 116 357.305C115.484 358.617 114.531 359.742 113.18 360.328L112.367 359.188C114.258 358.359 115.273 356.555 115.273 354.969V353.172H116.711V354.969ZM114.852 362.734V361.531H124.367V366.328H122.898V362.734H114.852ZM119.945 360.719V352.578H121.32V355.906H122.961V352.344H124.367V360.797H122.961V357.141H121.32V360.719H119.945ZM142.211 353.875V355.094H130.82V353.875H135.805V352.266H137.273V353.875H142.211ZM130.164 362.609V361.391H142.977V362.609H137.273V366.344H135.805V362.609H130.164ZM131.883 358.172C131.875 356.641 133.625 355.805 136.539 355.812C139.445 355.805 141.195 356.641 141.195 358.172C141.195 359.664 139.445 360.508 136.539 360.516C133.625 360.508 131.875 359.664 131.883 358.172ZM133.414 358.172C133.414 358.953 134.531 359.398 136.539 359.391C138.539 359.398 139.656 358.953 139.664 358.172C139.656 357.367 138.539 356.922 136.539 356.922C134.531 356.922 133.414 357.367 133.414 358.172ZM160.977 357.828V359.047H158.805V366.312H157.32V352.328H158.805V357.828H160.977ZM148.43 362.797V353.688H149.898V361.562C151.852 361.555 153.891 361.391 156.117 360.938L156.289 362.188C153.891 362.664 151.688 362.805 149.586 362.797H148.43ZM168.102 353.172C171.094 353.18 173.273 354.656 173.273 356.891C173.273 358.984 171.445 360.383 168.836 360.594V363.344H174.539V364.578H161.727V363.344H167.367V360.594C164.773 360.383 162.938 358.984 162.945 356.891C162.938 354.656 165.125 353.18 168.102 353.172ZM164.383 356.891C164.383 358.461 165.945 359.438 168.102 359.453C170.273 359.438 171.828 358.461 171.836 356.891C171.828 355.375 170.273 354.375 168.102 354.391C165.945 354.375 164.383 355.375 164.383 356.891ZM186.883 356.422V357.609H177.242V352.828H178.711V356.422H186.883ZM175.539 360.562V359.375H188.352V360.562H175.539ZM177.133 366V361.891H178.617V364.781H186.977V366H177.133ZM204.914 352.328V366.359H203.43V352.328H204.914ZM194.07 354.797V353.594H200.633V358.703H195.602V361.766C197.875 361.758 199.852 361.648 202.195 361.266L202.336 362.484C199.859 362.898 197.75 362.992 195.273 363H194.086V357.516H199.117V354.797H194.07ZM214.227 354.312C214.227 356.594 216.656 358.75 219.352 359.234L218.664 360.469C216.422 359.984 214.367 358.516 213.461 356.547C212.539 358.508 210.484 359.969 208.242 360.469L207.586 359.234C210.242 358.734 212.656 356.594 212.664 354.312V353.25H214.227V354.312ZM207.117 364.484V363.25H219.93V364.484H207.117ZM232.305 359.781V360.969H222.555V353.484H232.164V354.688H224.055V356.578H231.867V357.75H224.055V359.781H232.305ZM220.945 364.562V363.344H233.758V364.562H220.945ZM246.82 352.328V366.328H245.398V352.328H246.82ZM234.93 358.375C234.93 355.344 236.117 353.445 237.945 353.453C239.648 353.445 240.797 355.062 240.969 357.688H242.555V352.594H243.977V365.641H242.555V358.891H240.977C240.844 361.625 239.68 363.32 237.945 363.312C236.117 363.32 234.93 361.414 234.93 358.375ZM236.305 358.375C236.305 360.602 236.938 361.914 237.945 361.906C238.977 361.914 239.617 360.602 239.617 358.375C239.617 356.141 238.977 354.836 237.945 354.844C236.938 354.836 236.305 356.141 236.305 358.375ZM253.648 355.891C253.648 358.453 255.086 361.008 257.227 361.969L256.32 363.156C254.734 362.359 253.531 360.781 252.914 358.867C252.297 360.883 251.078 362.586 249.461 363.422L248.523 362.219C250.695 361.18 252.141 358.484 252.148 355.891V353.5H253.648V355.891ZM255.68 358.188V356.984H258.805V352.328H260.273V366.359H258.805V358.188H255.68ZM108.477 376.328V390.328H107.055V383.156H105.258V389.609H103.867V376.609H105.258V381.938H107.055V376.328H108.477ZM97.1484 386.766V377.984H98.6328V385.461C99.9219 385.445 101.336 385.344 102.93 385.031L103.086 386.328C101.164 386.672 99.5625 386.773 98.0547 386.766H97.1484ZM121.227 376.328V381.906H123.398V383.141H121.227V390.312H119.742V376.328H121.227ZM110.336 386.578C113.844 384.828 115.75 382.297 116.055 379.031H111.039V377.797H117.57C117.555 381.844 115.773 385.461 111.164 387.734L110.336 386.578ZM132.961 379.219C132.961 380.812 134.227 382.312 136.367 382.906L135.695 384.047C134.062 383.586 132.867 382.602 132.242 381.344C131.625 382.734 130.398 383.805 128.742 384.312L128.023 383.141C130.164 382.531 131.492 380.961 131.492 379.219V379.062H128.445V377.875H131.492V376.266H132.977V377.875H136.008V379.062H132.961V379.219ZM129.414 389.125C131.766 388.789 133.547 387.641 133.812 386.297H129.977V385.109H139.273V386.297H135.445C135.703 387.609 137.508 388.789 139.852 389.141L139.305 390.281C137.172 389.953 135.43 388.977 134.617 387.648C133.812 388.977 132.078 389.93 129.961 390.266L129.414 389.125ZM137.57 384.406V376.328H139.055V379.688H141.086V380.922H139.055V384.406H137.57ZM153.211 380.422V381.609H143.57V376.828H145.039V380.422H153.211ZM141.867 384.562V383.375H154.68V384.562H141.867ZM143.461 390V385.891H144.945V388.781H153.305V390H143.461ZM171.664 376.328V390.328H170.242V383.031H168.508V389.641H167.102V376.594H168.508V381.812H170.242V376.328H171.664ZM160.086 386.641V377.906H165.523V386.641H160.086ZM161.492 385.453H164.133V379.078H161.492V385.453ZM186.211 382.125V383.312H180.555V384.531H184.602V387.812H176.445V389.047H184.992V390.188H174.992V386.734H183.133V385.672H174.977V384.531H179.07V383.312H173.445V382.125H186.211ZM175.086 381.094V376.781H184.57V381.094H175.086ZM176.539 379.922H183.086V377.953H176.539V379.922ZM193.648 376.562C196.805 376.555 198.641 377.406 198.648 378.969C198.641 380.539 196.805 381.391 193.648 381.391C190.492 381.391 188.641 380.539 188.648 378.969C188.641 377.406 190.492 376.555 193.648 376.562ZM187.273 383.438V382.25H200.039V383.438H187.273ZM188.805 385.625V384.516H198.43V387.797H190.273V389.047H198.82V390.188H188.82V386.719H196.961V385.625H188.805ZM190.195 378.969C190.188 379.836 191.422 380.281 193.648 380.281C195.891 380.281 197.125 379.836 197.117 378.969C197.125 378.141 195.891 377.656 193.648 377.656C191.422 377.656 190.188 378.141 190.195 378.969ZM209.945 378.891C209.953 380.789 211.211 382.617 213.32 383.359L212.508 384.516C210.984 383.93 209.836 382.773 209.234 381.328C208.633 382.938 207.438 384.211 205.789 384.844L204.992 383.672C207.172 382.898 208.469 380.953 208.477 378.844V377.188H209.945V378.891ZM207.539 390.031V385.609H209.039V388.828H216.992V390.031H207.539ZM212.242 380.75V379.531H215.195V376.344H216.68V386.781H215.195V380.75H212.242ZM224.883 377.328V378.531H220.836V380.094H224.727V381.234H220.836V382.938C222.711 382.922 223.938 382.852 225.383 382.578L225.523 383.797C223.883 384.102 222.547 384.164 220.32 384.156H219.414V377.328H224.883ZM221.258 386.719V385.516H230.773V390.328H229.305V386.719H221.258ZM226.258 384.734V376.594H227.648V379.906H229.367V376.344H230.773V384.844H229.367V381.109H227.648V384.734H226.258ZM239.586 378.641V379.844H232.633V378.641H235.383V376.734H236.852V378.641H239.586ZM233.086 383.906C233.078 382.023 234.359 380.688 236.117 380.688C237.891 380.688 239.156 382.023 239.164 383.906C239.156 385.82 237.891 387.164 236.117 387.156C234.359 387.164 233.078 385.82 233.086 383.906ZM234.398 383.906C234.391 385.094 235.109 385.891 236.117 385.891C237.125 385.891 237.852 385.094 237.852 383.906C237.852 382.742 237.125 381.93 236.117 381.922C235.109 381.93 234.391 382.742 234.398 383.906ZM240.227 389.672V376.641H241.633V382.156H243.242V376.328H244.648V390.328H243.242V383.375H241.633V389.672H240.227ZM259.305 387.344V388.578H246.492V387.344H249.555V383.688C248.406 383.055 247.703 382.055 247.711 380.797C247.703 378.594 249.867 377.148 252.867 377.141C255.875 377.148 258.039 378.594 258.039 380.797C258.039 382.031 257.367 383.023 256.242 383.656V387.344H259.305ZM249.148 380.797C249.148 382.297 250.672 383.273 252.867 383.281C255.047 383.273 256.594 382.297 256.602 380.797C256.594 379.289 255.047 378.328 252.867 378.328C250.672 378.328 249.148 379.289 249.148 380.797ZM251.023 387.344H254.742V384.234C254.172 384.367 253.539 384.438 252.867 384.438C252.211 384.438 251.586 384.367 251.023 384.234V387.344ZM261.914 389.109C261.305 389.102 260.797 388.609 260.805 388C260.797 387.391 261.305 386.891 261.914 386.891C262.516 386.891 263.016 387.391 263.023 388C263.016 388.609 262.516 389.102 261.914 389.109Z" fill="#1F314E" fill-opacity="0.6"/>
</g>
<rect opacity="0.1" x="74.5" y="490.5" width="43" height="19" stroke="white" stroke-width="5"/>
<g filter="url(#filter1_d_342_737)">
<rect x="50" y="493" width="260" height="175" rx="10" fill="white" shape-rendering="crispEdges"/>
<path d="M160.463 528.932C160.381 528.146 159.759 527.688 158.754 527.688C157.715 527.688 157.134 528.166 157.127 528.822C157.12 529.54 157.858 529.861 158.713 530.053L159.602 530.271C161.297 530.661 162.562 531.522 162.568 533.17C162.562 534.981 161.153 536.144 158.74 536.137C156.348 536.144 154.823 535.036 154.762 532.91H156.758C156.826 533.908 157.619 534.414 158.713 534.414C159.793 534.414 160.49 533.908 160.49 533.17C160.49 532.493 159.875 532.179 158.795 531.912L157.715 531.652C156.047 531.242 155.021 530.408 155.021 528.959C155.015 527.161 156.601 525.965 158.768 525.965C160.962 525.965 162.404 527.182 162.432 528.932H160.463ZM167.777 528.576V530.094H166.383V533.717C166.376 534.312 166.67 534.455 167.08 534.469C167.285 534.469 167.641 534.448 167.887 534.428V536.027C167.668 536.062 167.306 536.103 166.807 536.096C165.344 536.103 164.346 535.446 164.359 534.004V530.094H163.334V528.576H164.359V526.799H166.383V528.576H167.777ZM172.33 536.15C170.054 536.144 168.659 534.674 168.666 532.322C168.659 530.032 170.074 528.48 172.248 528.48C174.196 528.48 175.734 529.711 175.734 532.24V532.814H170.662C170.662 533.936 171.325 534.626 172.371 534.633C173.062 534.626 173.554 534.325 173.752 533.881H175.68C175.393 535.255 174.162 536.144 172.33 536.15ZM170.662 531.543H173.82C173.813 530.641 173.191 529.991 172.289 529.998C171.359 529.991 170.703 530.688 170.662 531.543ZM177.006 538.789V528.576H179.002V529.82H179.084C179.364 529.219 179.952 528.48 181.203 528.48C182.844 528.48 184.218 529.752 184.211 532.295C184.218 534.776 182.898 536.123 181.203 536.123C179.993 536.123 179.371 535.426 179.084 534.811H179.029V538.789H177.006ZM178.988 532.281C178.981 533.621 179.556 534.503 180.561 534.51C181.593 534.503 182.153 533.594 182.146 532.281C182.153 530.989 181.606 530.094 180.561 530.094C179.549 530.094 178.981 530.948 178.988 532.281ZM192.578 536.137C190.097 536.137 188.6 534.291 188.6 531.051C188.6 527.817 190.11 525.965 192.578 525.965C195.046 525.965 196.557 527.817 196.557 531.051C196.557 534.305 195.053 536.137 192.578 536.137ZM190.705 531.051C190.691 533.334 191.43 534.441 192.578 534.441C193.727 534.441 194.458 533.334 194.451 531.051C194.458 528.788 193.72 527.653 192.578 527.646C191.437 527.653 190.705 528.788 190.705 531.051ZM197.979 536L197.965 534.51L201.52 531.242C202.442 530.36 202.941 529.813 202.941 529.027C202.941 528.146 202.278 527.599 201.369 527.605C200.439 527.599 199.831 528.187 199.838 529.137H197.883C197.876 527.202 199.312 525.965 201.396 525.965C203.516 525.965 204.924 527.175 204.924 528.891C204.924 530.019 204.377 530.941 202.34 532.787L200.836 534.25V534.305H205.061V536H197.979Z" fill="#498EF7"/>
<path d="M85.6348 547.945V565.875H82.9395V556.988H81.6113V565.074H78.9551V548.18H81.6113V554.703H82.9395V547.945H85.6348ZM70.498 561.461V549.742H77.7051V561.461H70.498ZM73.1348 559.273H75.0879V551.93H73.1348V559.273ZM103.682 554.918V557.125H96.8848V558.062H101.729V562.848H91.9629V563.668H102.158V565.777H89.1895V560.875H98.9355V560.172H89.1895V558.062H94.0527V557.125H87.334V554.918H103.682ZM89.3262 554.156V548.453H101.631V554.156H89.3262ZM92.0801 552.008H98.8184V550.621H92.0801V552.008ZM110.4 549.117C113.252 549.107 115.4 550.973 115.42 553.57C115.4 556.178 113.252 558.033 110.4 558.023C107.578 558.033 105.381 556.178 105.381 553.57C105.381 550.973 107.578 549.107 110.4 549.117ZM104.697 560.074C107.852 560.084 112.236 560.035 116.025 559.508L116.24 561.539C112.314 562.301 108.115 562.34 105.01 562.34L104.697 560.074ZM108.174 553.57C108.174 554.908 109.15 555.611 110.4 555.602C111.68 555.611 112.666 554.908 112.686 553.57C112.666 552.262 111.689 551.539 110.4 551.539C109.141 551.539 108.174 552.262 108.174 553.57ZM116.982 565.914V547.945H119.775V565.914H116.982ZM141.963 547.945V565.875H139.326V547.945H141.963ZM126.025 560.211C129.561 558.121 131.064 555.699 131.396 552.281H127.139V550.035H134.189C134.189 550.924 134.141 551.773 134.043 552.594H135.537V548.336H138.193V565.113H135.537V559.312H133.252V557.047H135.537V554.859H133.604C132.783 557.789 130.996 560.221 127.666 562.184L126.025 560.211ZM160.166 550.191V552.457H157.939V554.059H160.166V556.383H157.939V558.492H155.127V547.945H157.939V550.191H160.166ZM143.721 553.316C143.701 550.758 145.869 548.902 148.701 548.902C151.484 548.902 153.643 550.758 153.643 553.316C153.643 555.914 151.484 557.75 148.701 557.75C145.869 557.75 143.701 555.914 143.721 553.316ZM145.771 561.441V559.176H157.939V565.875H155.127V561.441H145.771ZM146.475 553.316C146.465 554.654 147.422 555.367 148.701 555.367C149.932 555.367 150.898 554.654 150.908 553.316C150.898 551.998 149.932 551.305 148.701 551.305C147.422 551.305 146.465 551.998 146.475 553.316ZM180.908 547.945V565.875H178.232V557.008H176.826V565.016H174.209V548.219H176.826V554.762H178.232V547.945H180.908ZM166.084 561.578V549.879H168.896V559.137C170.234 559.088 171.709 558.961 173.291 558.648L173.564 561.07C171.201 561.48 169.15 561.598 167.334 561.578H166.084ZM199.053 556.324V558.57H182.705V556.324H186.26V554.283C185 553.697 184.277 552.809 184.287 551.676C184.277 549.508 186.865 548.189 190.869 548.18C194.854 548.189 197.441 549.508 197.451 551.676C197.441 552.838 196.699 553.736 195.381 554.322V556.324H199.053ZM184.541 562.594C184.541 560.504 186.904 559.352 190.85 559.352C194.727 559.352 197.1 560.504 197.1 562.594C197.1 564.713 194.727 565.855 190.85 565.855C186.904 565.855 184.541 564.713 184.541 562.594ZM187.217 551.676C187.197 552.574 188.477 552.984 190.869 552.984C193.242 552.984 194.541 552.574 194.541 551.676C194.541 550.777 193.242 550.338 190.869 550.348C188.477 550.338 187.197 550.777 187.217 551.676ZM187.412 562.594C187.393 563.395 188.496 563.775 190.85 563.766C193.145 563.775 194.277 563.395 194.287 562.594C194.277 561.803 193.145 561.471 190.85 561.461C188.496 561.471 187.393 561.803 187.412 562.594ZM189.111 556.324H192.568V555.006C192.041 555.064 191.465 555.094 190.869 555.094C190.244 555.094 189.658 555.064 189.111 555.006V556.324ZM208.154 548.18C212.324 548.189 214.727 549.264 214.736 551.227C214.727 553.219 212.324 554.283 208.154 554.293C203.975 554.283 201.562 553.219 201.572 551.227C201.562 549.264 203.975 548.189 208.154 548.18ZM199.99 557.242V555.016H216.338V557.242H199.99ZM201.846 565.777V560.895H211.592V560.133H201.846V558.102H214.385V562.848H204.619V563.668H214.814V565.777H201.846ZM204.521 551.227C204.512 551.988 205.635 552.223 208.154 552.242C210.703 552.223 211.826 551.988 211.826 551.227C211.826 550.562 210.703 550.23 208.154 550.23C205.635 550.23 204.512 550.562 204.521 551.227ZM236.182 547.965V553.004H238.35V555.289H236.182V560.211H233.369V547.965H236.182ZM221.514 557.75C222.783 557.75 224.219 557.74 225.713 557.711V556.793C223.809 556.49 222.627 555.553 222.627 554.195C222.627 552.545 224.395 551.52 227.08 551.52C229.756 551.52 231.533 552.545 231.533 554.195C231.533 555.543 230.371 556.471 228.506 556.783V557.604C229.912 557.535 231.309 557.438 232.627 557.281L232.822 559.195C229.062 559.85 224.961 559.889 221.807 559.898L221.514 557.75ZM221.982 551.207V549.176H225.713V547.809H228.506V549.176H232.197V551.207H221.982ZM223.818 563.004V560.855H236.182V565.875H233.369V563.004H223.818ZM225.322 554.195C225.312 554.771 225.938 555.064 227.08 555.055C228.223 555.064 228.838 554.771 228.838 554.195C228.838 553.6 228.223 553.375 227.08 553.375C225.938 553.375 225.312 553.6 225.322 554.195ZM254.092 547.965V560.777H251.279V547.965H254.092ZM239.268 553.629C239.258 550.992 241.455 549.068 244.229 549.078C247.002 549.068 249.189 550.992 249.189 553.629C249.189 556.314 247.002 558.219 244.229 558.219C241.455 558.219 239.258 556.314 239.268 553.629ZM241.943 565.582V559.488H244.795V563.336H254.541V565.582H241.943ZM242.002 553.629C242.002 555.025 242.959 555.777 244.229 555.777C245.449 555.777 246.406 555.025 246.396 553.629C246.406 552.271 245.449 551.51 244.229 551.52C242.959 551.51 242.002 552.271 242.002 553.629ZM264.854 550.562V552.789H256.299V550.562H259.229V548.434H262.002V550.562H264.854ZM256.65 557.77C256.641 555.25 258.33 553.473 260.635 553.473C262.93 553.473 264.57 555.25 264.58 557.77C264.57 560.309 262.93 562.105 260.635 562.105C258.33 562.105 256.641 560.309 256.65 557.77ZM259.111 557.77C259.111 559.068 259.717 559.732 260.635 559.723C261.504 559.732 262.109 559.068 262.119 557.77C262.109 556.5 261.504 555.787 260.635 555.797C259.717 555.787 259.111 556.5 259.111 557.77ZM265.439 565.133V548.277H268.057V555.152H269.209V547.945H271.885V565.875H269.209V557.398H268.057V565.133H265.439ZM289.99 561.559V563.844H273.604V561.559H277.139V557.301C275.791 556.451 274.98 555.182 274.99 553.609C274.98 550.689 277.861 548.746 281.768 548.746C285.664 548.746 288.574 550.689 288.584 553.609C288.574 555.152 287.793 556.402 286.494 557.242V561.559H289.99ZM277.783 553.609C277.773 555.309 279.326 556.305 281.768 556.305C284.189 556.305 285.791 555.309 285.791 553.609C285.791 551.891 284.189 550.943 281.768 550.953C279.326 550.943 277.773 551.891 277.783 553.609ZM279.912 561.559H283.643V558.316C283.057 558.414 282.422 558.473 281.768 558.473C281.113 558.473 280.498 558.414 279.912 558.316V561.559Z" fill="#1F314E"/>
<path d="M110.445 585.328V599.359H108.961V585.328H110.445ZM99.3359 591.281C99.3359 588.289 100.844 586.383 102.961 586.375C105.039 586.383 106.57 588.289 106.57 591.281C106.57 594.305 105.039 596.211 102.961 596.203C100.844 596.211 99.3359 594.305 99.3359 591.281ZM100.773 591.281C100.766 593.508 101.656 594.875 102.961 594.875C104.242 594.875 105.133 593.508 105.133 591.281C105.133 589.086 104.242 587.711 102.961 587.703C101.656 587.711 100.766 589.086 100.773 591.281ZM121.992 585.609V590.953H123.477V585.328H124.883V599.328H123.477V592.172H121.992V598.656H120.617V585.609H121.992ZM113.039 595.766V587.062H116.07V588.281H114.398V594.5C114.891 594.477 115.469 594.406 116.117 594.25L116.242 595.5C115.117 595.742 114.258 595.766 113.617 595.766H113.039ZM116.648 595.766V587.062H119.758V588.281H117.992V594.508C118.586 594.492 119.258 594.422 119.992 594.219L120.117 595.469C118.992 595.75 118.07 595.766 117.242 595.766H116.648ZM135.836 592.766V595.188C137.117 595.117 138.414 595.008 139.633 594.828L139.742 595.922C136.578 596.508 133.18 596.531 130.68 596.531L130.492 595.312C131.617 595.305 132.953 595.297 134.352 595.25V592.766H135.836ZM130.867 592.094C132.953 591.492 134.258 590.031 134.336 588.312H131.242V587.109H134.352V585.438H135.836V587.109H138.977V588.312H135.836C135.914 589.961 137.242 591.375 139.336 591.938L138.648 593.094C136.977 592.617 135.727 591.602 135.094 590.273C134.484 591.672 133.25 592.742 131.57 593.219L130.867 592.094ZM140.508 599.359V585.328H141.992V599.359H140.508ZM155.43 586.156V587.266C155.438 588.453 155.438 589.836 155.078 591.688H157.055V592.906H144.242V591.688H153.586C153.953 589.867 153.961 588.539 153.961 587.359H145.852V586.156H155.43ZM145.914 599.031V594.359H147.383V597.812H155.852V599.031H145.914ZM166.758 586.688V598H165.023V588.406H164.961L162.258 590.172V588.531L165.07 586.688H166.758ZM174.648 592.5V593.938H169.633V592.5H174.648ZM176.195 598V596.75L180.117 592.797C181.359 591.508 181.977 590.789 181.977 589.797C181.977 588.68 181.07 587.969 179.883 587.969C178.625 587.969 177.828 588.766 177.82 589.969H176.195C176.18 587.898 177.758 586.531 179.914 586.531C182.094 586.531 183.602 587.914 183.617 589.75C183.602 591.016 183.008 592.023 180.883 594.109L178.586 596.438V596.531H183.805V598H176.195ZM189.195 585.797C191.305 585.812 192.859 587.102 192.867 588.938C192.859 590.781 191.305 592.062 189.195 592.062C187.062 592.062 185.516 590.781 185.508 588.938C185.516 587.102 187.062 585.812 189.195 585.797ZM186.961 588.938C186.953 590.094 187.906 590.859 189.195 590.859C190.477 590.859 191.43 590.094 191.43 588.938C191.43 587.797 190.477 587.031 189.195 587.047C187.906 587.031 186.953 587.797 186.961 588.938ZM187.633 594.281V593.094H196.836V596.625H189.117V597.969H197.305V599.156H187.68V595.516H195.367V594.281H187.633ZM195.352 592.453V585.328H196.836V592.453H195.352ZM210.055 585.328V589.469H212.086V590.703H210.055V595.5H208.555V585.328H210.055ZM199.039 592.781C202.32 591.797 204.352 589.93 204.641 587.625H199.633V586.391H206.258C206.258 590.062 203.758 592.727 199.664 593.969L199.039 592.781ZM201.164 599.031V594.453H202.664V597.828H210.633V599.031H201.164ZM228.445 585.328V599.328H226.977V592.094H223.836V590.875H226.977V585.328H228.445ZM216.758 595.562C220.469 593.75 222.117 591.227 222.375 588.016H217.383V586.828H223.883C223.867 590.883 222.289 594.383 217.539 596.734L216.758 595.562ZM236.336 586.797V591.859H232.492V594.812C234.008 594.805 235.445 594.734 237.133 594.469L237.258 595.656C235.312 596 233.75 596.047 232.008 596.062H231.055V590.641H234.898V588.016H231.039V586.797H236.336ZM238.039 598.609V585.609H239.398V590.781H241.211V585.328H242.633V599.328H241.211V591.984H239.398V598.609H238.039ZM252.602 589.812V591.016H249.867V592.789C251.109 592.727 252.344 592.641 253.492 592.516L253.602 593.609C250.617 594.016 247.344 594.102 244.711 594.094L244.508 592.906C245.703 592.898 247.031 592.883 248.398 592.844V591.016H245.758V586.219H252.477V587.422H247.242V589.812H252.602ZM246.82 599.031V595.078H248.305V597.828H256.492V599.031H246.82ZM254.57 595.828V585.328H256.055V595.828H254.57ZM94.6484 609.328V623.328H93.2266V616.156H91.4297V622.609H90.0391V609.609H91.4297V614.938H93.2266V609.328H94.6484ZM83.3203 619.766V610.984H84.8047V618.461C86.0938 618.445 87.5078 618.344 89.1016 618.031L89.2578 619.328C87.3359 619.672 85.7344 619.773 84.2266 619.766H83.3203ZM108.164 618.312V623.328H106.68V619.484H98.6797V618.312H108.164ZM96.6953 613.484C96.6875 611.508 98.2578 610.102 100.367 610.109C101.555 610.102 102.578 610.562 103.227 611.328H106.68V609.328H108.164V617.578H106.68V615.656H103.227C102.57 616.422 101.555 616.883 100.367 616.875C98.2578 616.883 96.6875 615.477 96.6953 613.484ZM98.1172 613.484C98.1094 614.766 99.0547 615.617 100.367 615.625C101.625 615.617 102.586 614.766 102.586 613.484C102.586 612.234 101.625 611.367 100.367 611.359C99.0547 611.367 98.1094 612.234 98.1172 613.484ZM103.875 614.438H106.68V612.547H103.883C103.961 612.844 104.008 613.156 104.008 613.484C104.008 613.82 103.961 614.141 103.875 614.438ZM121.914 609.328V623.359H120.43V609.328H121.914ZM110.805 615.281C110.805 612.289 112.312 610.383 114.43 610.375C116.508 610.383 118.039 612.289 118.039 615.281C118.039 618.305 116.508 620.211 114.43 620.203C112.312 620.211 110.805 618.305 110.805 615.281ZM112.242 615.281C112.234 617.508 113.125 618.875 114.43 618.875C115.711 618.875 116.602 617.508 116.602 615.281C116.602 613.086 115.711 611.711 114.43 611.703C113.125 611.711 112.234 613.086 112.242 615.281ZM131.039 617.531V619.156H133.227V617.531H134.602V623.156H129.648V617.531H131.039ZM128.258 613.156C128.25 611.242 129.789 609.922 131.93 609.922C133.773 609.922 135.203 610.961 135.508 612.531H138.242V609.328H139.727V616.75H138.242V613.75H135.516C135.227 615.352 133.789 616.414 131.93 616.406C129.789 616.414 128.25 615.086 128.258 613.156ZM129.68 613.156C129.672 614.367 130.609 615.195 131.93 615.203C133.227 615.195 134.148 614.367 134.148 613.156C134.148 611.961 133.227 611.148 131.93 611.156C130.609 611.148 129.672 611.961 129.68 613.156ZM131.039 622H133.227V620.281H131.039V622ZM134.68 622.141C136.367 621.445 137.195 619.977 137.195 618.578V617.438H138.664V618.578C138.656 620.047 139.484 621.531 141.211 622.141L140.445 623.266C139.18 622.781 138.359 621.867 137.914 620.758C137.453 621.836 136.633 622.766 135.43 623.266L134.68 622.141ZM153.211 613.422V614.609H143.57V609.828H145.039V613.422H153.211ZM141.867 617.562V616.375H154.68V617.562H141.867ZM143.461 623V618.891H144.945V621.781H153.305V623H143.461ZM160.867 613.453C160.859 615.797 162.398 618.219 164.555 619.141L163.742 620.297C162.094 619.57 160.781 618.023 160.133 616.156C159.484 618.156 158.172 619.859 156.539 620.656L155.68 619.484C157.789 618.492 159.352 615.867 159.367 613.453V611.969H156.164V610.734H164.055V611.969H160.867V613.453ZM165.82 623.328V609.328H167.305V623.328H165.82ZM184.82 609.938V610.625C184.82 611.516 184.82 612.938 184.414 614.812L182.961 614.641C183.297 613.109 183.352 611.969 183.375 611.125H179.992V609.938H184.82ZM173.461 617.094V615.891H179.367V613.188H180.836V615.891H186.195V617.094H173.461ZM174.539 611.125V609.938H178.852V610.453C178.836 611.289 178.836 612.797 178.164 614.828L176.742 614.625C177.234 613.07 177.352 611.93 177.383 611.125H174.539ZM174.852 619.672V618.469H184.617V623.25H183.102V619.672H174.852ZM202.195 609.344V613.5H204.195V614.719H202.195V618.766H200.711V609.344H202.195ZM191.086 617.203C192.172 617.203 193.43 617.203 194.742 617.172V616.227C193.148 616.047 192.133 615.297 192.148 614.172C192.133 612.891 193.469 612.094 195.477 612.109C197.484 612.094 198.797 612.891 198.805 614.172C198.797 615.289 197.805 616.039 196.227 616.227V617.117C197.477 617.055 198.742 616.953 199.914 616.781L200.039 617.844C197.031 618.367 193.711 618.391 191.242 618.391L191.086 617.203ZM191.445 611.641V610.531H194.742V609.219H196.227V610.531H199.523V611.641H191.445ZM192.836 620.578V619.422H202.195V623.328H200.711V620.578H192.836ZM193.555 614.172C193.555 614.828 194.281 615.258 195.477 615.25C196.656 615.258 197.391 614.828 197.383 614.172C197.391 613.5 196.656 613.109 195.477 613.125C194.281 613.109 193.555 613.5 193.555 614.172ZM216.617 609.344V619.516H215.133V609.344H216.617ZM205.289 613.75C205.297 611.727 206.906 610.289 209.023 610.281C211.133 610.289 212.742 611.727 212.742 613.75C212.742 615.805 211.133 617.234 209.023 617.234C206.906 617.234 205.297 615.805 205.289 613.75ZM206.742 613.75C206.734 615.07 207.719 615.938 209.023 615.938C210.305 615.938 211.289 615.07 211.289 613.75C211.289 612.461 210.305 611.578 209.023 611.578C207.719 611.578 206.734 612.461 206.742 613.75ZM207.461 623.031V618.484H208.961V621.828H217.039V623.031H207.461ZM225.758 611.641V612.844H218.805V611.641H221.555V609.734H223.023V611.641H225.758ZM219.258 616.906C219.25 615.023 220.531 613.688 222.289 613.688C224.062 613.688 225.328 615.023 225.336 616.906C225.328 618.82 224.062 620.164 222.289 620.156C220.531 620.164 219.25 618.82 219.258 616.906ZM220.57 616.906C220.562 618.094 221.281 618.891 222.289 618.891C223.297 618.891 224.023 618.094 224.023 616.906C224.023 615.742 223.297 614.93 222.289 614.922C221.281 614.93 220.562 615.742 220.57 616.906ZM226.398 622.672V609.641H227.805V615.156H229.414V609.328H230.82V623.328H229.414V616.375H227.805V622.672H226.398ZM245.43 617.219V618.422H239.742V623.312H238.289V618.422H232.664V617.219H245.43ZM233.383 614.984C235.992 614.625 238.164 613.07 238.211 611.344H233.852V610.156H244.227V611.344H239.898C239.922 613.07 242.078 614.625 244.727 614.984L244.18 616.156C241.883 615.797 239.898 614.664 239.047 613.07C238.188 614.664 236.211 615.797 233.945 616.156L233.383 614.984ZM250.758 613.156C250.758 615.391 251.695 617.773 253.57 618.922L252.742 620.062C251.43 619.273 250.547 617.875 250.062 616.258C249.555 618.031 248.586 619.547 247.227 620.375L246.305 619.266C248.281 618.078 249.328 615.602 249.32 613.219V610.609H250.758V613.156ZM252.055 615.484V614.25H254.227V609.594H255.633V622.641H254.227V615.484H252.055ZM257.117 623.328V609.328H258.539V623.328H257.117ZM273.133 620.344V621.578H260.32V620.344H263.383V616.688C262.234 616.055 261.531 615.055 261.539 613.797C261.531 611.594 263.695 610.148 266.695 610.141C269.703 610.148 271.867 611.594 271.867 613.797C271.867 615.031 271.195 616.023 270.07 616.656V620.344H273.133ZM262.977 613.797C262.977 615.297 264.5 616.273 266.695 616.281C268.875 616.273 270.422 615.297 270.43 613.797C270.422 612.289 268.875 611.328 266.695 611.328C264.5 611.328 262.977 612.289 262.977 613.797ZM264.852 620.344H268.57V617.234C268 617.367 267.367 617.438 266.695 617.438C266.039 617.438 265.414 617.367 264.852 617.234V620.344ZM275.742 622.109C275.133 622.102 274.625 621.609 274.633 621C274.625 620.391 275.133 619.891 275.742 619.891C276.344 619.891 276.844 620.391 276.852 621C276.844 621.609 276.344 622.102 275.742 622.109Z" fill="#1F314E" fill-opacity="0.6"/>
</g>
<g filter="url(#filter2_d_342_737)">
<rect x="46" y="726" width="260" height="175" rx="10" fill="white" shape-rendering="crispEdges"/>
<path d="M156.265 761.932C156.183 761.146 155.561 760.688 154.556 760.688C153.517 760.688 152.936 761.166 152.929 761.822C152.922 762.54 153.66 762.861 154.515 763.053L155.403 763.271C157.099 763.661 158.363 764.522 158.37 766.17C158.363 767.981 156.955 769.144 154.542 769.137C152.149 769.144 150.625 768.036 150.563 765.91H152.56C152.628 766.908 153.421 767.414 154.515 767.414C155.595 767.414 156.292 766.908 156.292 766.17C156.292 765.493 155.677 765.179 154.597 764.912L153.517 764.652C151.849 764.242 150.823 763.408 150.823 761.959C150.816 760.161 152.402 758.965 154.569 758.965C156.764 758.965 158.206 760.182 158.233 761.932H156.265ZM163.579 761.576V763.094H162.185V766.717C162.178 767.312 162.472 767.455 162.882 767.469C163.087 767.469 163.442 767.448 163.688 767.428V769.027C163.47 769.062 163.107 769.103 162.608 769.096C161.146 769.103 160.147 768.446 160.161 767.004V763.094H159.136V761.576H160.161V759.799H162.185V761.576H163.579ZM168.132 769.15C165.855 769.144 164.461 767.674 164.468 765.322C164.461 763.032 165.876 761.48 168.05 761.48C169.998 761.48 171.536 762.711 171.536 765.24V765.814H166.464C166.464 766.936 167.127 767.626 168.173 767.633C168.863 767.626 169.355 767.325 169.554 766.881H171.481C171.194 768.255 169.964 769.144 168.132 769.15ZM166.464 764.543H169.622C169.615 763.641 168.993 762.991 168.091 762.998C167.161 762.991 166.505 763.688 166.464 764.543ZM172.808 771.789V761.576H174.804V762.82H174.886C175.166 762.219 175.754 761.48 177.005 761.48C178.646 761.48 180.02 762.752 180.013 765.295C180.02 767.776 178.7 769.123 177.005 769.123C175.795 769.123 175.173 768.426 174.886 767.811H174.831V771.789H172.808ZM174.79 765.281C174.783 766.621 175.357 767.503 176.362 767.51C177.395 767.503 177.955 766.594 177.948 765.281C177.955 763.989 177.408 763.094 176.362 763.094C175.351 763.094 174.783 763.948 174.79 765.281ZM188.38 769.137C185.898 769.137 184.401 767.291 184.401 764.051C184.401 760.817 185.912 758.965 188.38 758.965C190.848 758.965 192.358 760.817 192.358 764.051C192.358 767.305 190.854 769.137 188.38 769.137ZM186.507 764.051C186.493 766.334 187.231 767.441 188.38 767.441C189.528 767.441 190.26 766.334 190.253 764.051C190.26 761.788 189.521 760.653 188.38 760.646C187.238 760.653 186.507 761.788 186.507 764.051ZM197.444 769.137C195.271 769.137 193.712 767.94 193.671 766.211H195.749C195.783 766.949 196.501 767.435 197.458 767.441C198.442 767.435 199.146 766.888 199.14 766.088C199.146 765.281 198.429 764.714 197.267 764.707H196.351V763.189H197.267C198.244 763.189 198.928 762.656 198.921 761.877C198.928 761.118 198.347 760.599 197.472 760.605C196.597 760.599 195.879 761.091 195.845 761.85H193.876C193.91 760.147 195.441 758.965 197.472 758.965C199.536 758.965 200.91 760.188 200.903 761.754C200.91 762.861 200.138 763.647 199.03 763.846V763.928C200.486 764.105 201.286 764.987 201.272 766.225C201.286 767.92 199.68 769.137 197.444 769.137Z" fill="#498EF7"/>
<path d="M97.6113 780.965V786.004H99.9355V788.309H97.6113V793.953H94.7988V780.965H97.6113ZM83.3926 786.668C83.373 783.992 85.5898 782.068 88.373 782.078C91.1367 782.068 93.3145 783.992 93.3145 786.668C93.3145 789.314 91.1367 791.268 88.373 791.258C85.5898 791.268 83.373 789.314 83.3926 786.668ZM85.8535 798.582V792.586H88.666V796.336H98.1973V798.582H85.8535ZM86.1465 786.668C86.1367 788.025 87.1426 788.816 88.373 788.816C89.6133 788.816 90.5703 788.025 90.5801 786.668C90.5703 785.271 89.6133 784.51 88.373 784.52C87.1426 784.51 86.1367 785.271 86.1465 786.668ZM115.795 780.965V794.031H113.002V787.762H110.307V785.496H113.002V780.965H115.795ZM100.463 789.852C103.52 788.924 104.672 786.6 104.682 784.383V784.344H101.244V782.098H110.971V784.344H107.553V784.402C107.553 786.424 108.666 788.631 111.576 789.559L110.209 791.785C108.246 791.16 106.928 789.93 106.156 788.387C105.365 790.096 103.988 791.453 101.908 792.117L100.463 789.852ZM103.783 798.582V792.898H106.596V796.336H116.205V798.582H103.783ZM137.553 780.945V798.875H134.76V790.027H131.439V787.742H134.76V780.945H137.553ZM122.143 793.66C126.557 791.463 128.324 788.797 128.705 784.988H123.002V782.801H131.537C131.537 788.309 129.916 792.713 123.568 795.848L122.143 793.66ZM146.967 782.625V789.715H142.826V792.654C144.408 792.645 145.922 792.576 147.611 792.312L147.807 794.559C145.512 794.939 143.607 794.998 141.4 795.008H140.131V787.508H144.252V784.891H140.111V782.625H146.967ZM148.549 798.016V781.219H151.107V787.625H152.553V780.945H155.209V798.875H152.553V789.871H151.107V798.016H148.549ZM176.615 780.945V798.914H173.842V789.422H170.834V794.754H162.064V782.332H164.857V786.57H168.08V782.332H170.834V787.156H173.842V780.945H176.615ZM164.857 792.508H168.08V788.758H164.857V792.508ZM195.053 790.555V792.762H178.666V790.555H195.053ZM180.639 798.582V793.504H183.393V796.336H193.393V798.582H180.639ZM180.678 789.617V781.512H193.178V783.641H183.471V784.539H192.787V786.59H183.471V787.508H193.354V789.617H180.678ZM204.154 781.18C208.324 781.189 210.727 782.264 210.736 784.227C210.727 786.219 208.324 787.283 204.154 787.293C199.975 787.283 197.562 786.219 197.572 784.227C197.562 782.264 199.975 781.189 204.154 781.18ZM195.99 790.242V788.016H212.338V790.242H195.99ZM197.846 798.777V793.895H207.592V793.133H197.846V791.102H210.385V795.848H200.619V796.668H210.814V798.777H197.846ZM200.521 784.227C200.512 784.988 201.635 785.223 204.154 785.242C206.703 785.223 207.826 784.988 207.826 784.227C207.826 783.562 206.703 783.23 204.154 783.23C201.635 783.23 200.512 783.562 200.521 784.227ZM232.24 784.363V786.57H219.721V781.141H222.514V784.363H232.24ZM217.729 789.715V787.449H234.115V789.715H227.26V790.945H232.201V795.77H222.396V796.629H232.729V798.777H219.564V793.836H229.408V793.035H219.545V790.945H224.486V789.715H217.729ZM250.209 780.945V798.914H247.416V789.559H244.721V787.273H247.416V780.945H250.209ZM235.6 784.656V782.41H243.744V789.266H238.451V792.469C240.736 792.459 242.768 792.371 244.975 792L245.189 794.266C242.543 794.705 240.072 794.793 237.162 794.793H235.658V787.039H240.99V784.656H235.6ZM268.705 794.559V796.844H252.318V794.559H255.854V790.301C254.506 789.451 253.695 788.182 253.705 786.609C253.695 783.689 256.576 781.746 260.482 781.746C264.379 781.746 267.289 783.689 267.299 786.609C267.289 788.152 266.508 789.402 265.209 790.242V794.559H268.705ZM256.498 786.609C256.488 788.309 258.041 789.305 260.482 789.305C262.904 789.305 264.506 788.309 264.506 786.609C264.506 784.891 262.904 783.943 260.482 783.953C258.041 783.943 256.488 784.891 256.498 786.609ZM258.627 794.559H262.357V791.316C261.771 791.414 261.137 791.473 260.482 791.473C259.828 791.473 259.213 791.414 258.627 791.316V794.559Z" fill="#1F314E"/>
<path d="M89.6328 818.312V822.5H91.6641V823.75H89.6328V828.609H88.1484V818.312H89.6328ZM78.8516 822.766C78.8359 820.727 80.4609 819.289 82.5703 819.281C84.6875 819.289 86.2891 820.727 86.3047 822.766C86.2891 824.805 84.6875 826.258 82.5703 826.25C80.4609 826.258 78.8359 824.805 78.8516 822.766ZM80.3047 822.766C80.2891 824.07 81.2891 824.953 82.5703 824.953C83.8672 824.953 84.8438 824.07 84.8516 822.766C84.8438 821.461 83.8672 820.578 82.5703 820.578C81.2891 820.578 80.2891 821.461 80.3047 822.766ZM80.7578 832.031V827.531H82.2422V830.828H90.2266V832.031H80.7578ZM104.133 818.344V828.594H102.648V823.328H99.9766V822.125H102.648V818.344H104.133ZM92.4766 825.672C94.625 824.945 95.9688 823.102 95.9609 821.172V820.625H92.9297V819.406H100.477V820.625H97.4766V821.172C97.4688 822.914 98.7344 824.672 100.852 825.375L100.086 826.562C98.5156 826.016 97.3516 824.891 96.7422 823.5C96.1328 825.047 94.9062 826.281 93.2422 826.875L92.4766 825.672ZM95.0391 832.031V827.672H96.5234V830.828H104.508V832.031H95.0391ZM117.289 818.344V822.844H119.32V824.078H117.289V828.812H115.805V818.344H117.289ZM106.305 821.172V819.969H109.742V818.328H111.227V819.969H114.648V821.172H106.305ZM107.07 824.484C107.062 822.883 108.445 821.836 110.477 821.844C112.484 821.836 113.867 822.883 113.867 824.484C113.867 826.07 112.484 827.102 110.477 827.109C108.445 827.102 107.062 826.07 107.07 824.484ZM108.414 832.031V827.984H109.898V830.828H117.883V832.031H108.414ZM108.508 824.484C108.492 825.398 109.289 825.961 110.477 825.953C111.664 825.961 112.461 825.398 112.477 824.484C112.461 823.562 111.664 822.992 110.477 822.984C109.289 822.992 108.492 823.562 108.508 824.484ZM136.07 818.328V832.328H134.648V825.031H132.914V831.641H131.508V818.594H132.914V823.812H134.648V818.328H136.07ZM124.492 828.641V819.906H129.93V828.641H124.492ZM125.898 827.453H128.539V821.078H125.898V827.453ZM150.617 824.125V825.312H144.961V826.531H149.008V829.812H140.852V831.047H149.398V832.188H139.398V828.734H147.539V827.672H139.383V826.531H143.477V825.312H137.852V824.125H150.617ZM139.492 823.094V818.781H148.977V823.094H139.492ZM140.945 821.922H147.492V819.953H140.945V821.922ZM155.648 818.797C157.758 818.812 159.312 820.102 159.32 821.938C159.312 823.781 157.758 825.062 155.648 825.062C153.516 825.062 151.969 823.781 151.961 821.938C151.969 820.102 153.516 818.812 155.648 818.797ZM153.414 821.938C153.406 823.094 154.359 823.859 155.648 823.859C156.93 823.859 157.883 823.094 157.883 821.938C157.883 820.797 156.93 820.031 155.648 820.047C154.359 820.031 153.406 820.797 153.414 821.938ZM154.086 827.281V826.094H163.289V829.625H155.57V830.969H163.758V832.156H154.133V828.516H161.82V827.281H154.086ZM161.805 825.453V818.328H163.289V825.453H161.805ZM181.086 818.344V826.625H179.602V824.922H176.07V823.703H179.602V822H176.219C175.312 824.25 173.211 825.836 170.18 826.703L169.586 825.547C172.898 824.602 174.836 822.82 175.102 820.562H170.305V819.344H176.711C176.711 819.859 176.656 820.359 176.562 820.828H179.602V818.344H181.086ZM171.758 829.516C171.758 827.82 173.602 826.789 176.477 826.781C179.312 826.789 181.172 827.82 181.18 829.516C181.172 831.219 179.312 832.266 176.477 832.266C173.602 832.266 171.758 831.219 171.758 829.516ZM173.227 829.516C173.227 830.5 174.477 831.07 176.477 831.078C178.438 831.07 179.688 830.5 179.695 829.516C179.688 828.516 178.438 827.945 176.477 827.953C174.477 827.945 173.227 828.516 173.227 829.516ZM196.039 826.281V827.516H190.32V832.328H188.867V827.516H183.227V826.281H196.039ZM184.617 821.969C184.625 820.062 186.641 818.859 189.602 818.859C192.562 818.859 194.594 820.062 194.586 821.969C194.594 823.852 192.562 825.047 189.602 825.047C186.641 825.047 184.625 823.852 184.617 821.969ZM186.148 821.969C186.141 823.133 187.523 823.859 189.602 823.859C191.688 823.859 193.062 823.133 193.07 821.969C193.062 820.789 191.688 820.055 189.602 820.047C187.523 820.055 186.141 820.789 186.148 821.969ZM199.586 829.922L198.336 834.234H197.008L197.836 829.922H199.586ZM212.352 818.312V822.5H214.383V823.75H212.352V828.609H210.867V818.312H212.352ZM201.57 822.766C201.555 820.727 203.18 819.289 205.289 819.281C207.406 819.289 209.008 820.727 209.023 822.766C209.008 824.805 207.406 826.258 205.289 826.25C203.18 826.258 201.555 824.805 201.57 822.766ZM203.023 822.766C203.008 824.07 204.008 824.953 205.289 824.953C206.586 824.953 207.562 824.07 207.57 822.766C207.562 821.461 206.586 820.578 205.289 820.578C204.008 820.578 203.008 821.461 203.023 822.766ZM203.477 832.031V827.531H204.961V830.828H212.945V832.031H203.477ZM226.852 818.344V828.594H225.367V823.328H222.695V822.125H225.367V818.344H226.852ZM215.195 825.672C217.344 824.945 218.688 823.102 218.68 821.172V820.625H215.648V819.406H223.195V820.625H220.195V821.172C220.188 822.914 221.453 824.672 223.57 825.375L222.805 826.562C221.234 826.016 220.07 824.891 219.461 823.5C218.852 825.047 217.625 826.281 215.961 826.875L215.195 825.672ZM217.758 832.031V827.672H219.242V830.828H227.227V832.031H217.758ZM244.57 818.328V832.328H243.102V825.094H239.961V823.875H243.102V818.328H244.57ZM232.883 828.562C236.594 826.75 238.242 824.227 238.5 821.016H233.508V819.828H240.008C239.992 823.883 238.414 827.383 233.664 829.734L232.883 828.562ZM252.461 819.797V824.859H248.617V827.812C250.133 827.805 251.57 827.734 253.258 827.469L253.383 828.656C251.438 829 249.875 829.047 248.133 829.062H247.18V823.641H251.023V821.016H247.164V819.797H252.461ZM254.164 831.609V818.609H255.523V823.781H257.336V818.328H258.758V832.328H257.336V824.984H255.523V831.609H254.164ZM273.367 824.75V825.891H260.555V824.75H273.367ZM262.07 827.938V826.875H271.789V829.953H263.57V831.109H272.227V832.156H262.086V828.969H270.32V827.938H262.07ZM262.164 819.734V818.688H271.758V821.719H263.664V822.781H271.992V823.828H262.195V820.734H270.273V819.734H262.164ZM121.039 849.688V850.859H108.242V849.688H113.898V848.469H109.914V842.703H119.477V843.875H111.414V845.016H119.117V846.125H111.414V847.312H119.57V848.469H115.383V849.688H121.039ZM109.789 854.047C109.789 852.578 111.531 851.773 114.648 851.781C117.719 851.773 119.469 852.578 119.477 854.047C119.469 855.523 117.719 856.305 114.648 856.297C111.531 856.305 109.789 855.523 109.789 854.047ZM111.273 854.047C111.266 854.805 112.438 855.188 114.648 855.172C116.828 855.188 117.992 854.805 117.992 854.047C117.992 853.289 116.828 852.891 114.648 852.891C112.438 852.891 111.266 853.289 111.273 854.047ZM129.023 844.641V845.844H122.07V844.641H124.82V842.734H126.289V844.641H129.023ZM122.523 849.906C122.516 848.023 123.797 846.688 125.555 846.688C127.328 846.688 128.594 848.023 128.602 849.906C128.594 851.82 127.328 853.164 125.555 853.156C123.797 853.164 122.516 851.82 122.523 849.906ZM123.836 849.906C123.828 851.094 124.547 851.891 125.555 851.891C126.562 851.891 127.289 851.094 127.289 849.906C127.289 848.742 126.562 847.93 125.555 847.922C124.547 847.93 123.828 848.742 123.836 849.906ZM129.664 855.672V842.641H131.07V848.156H132.68V842.328H134.086V856.328H132.68V849.375H131.07V855.672H129.664ZM144.727 845.156C144.719 846.992 145.984 848.688 148.133 849.422L147.305 850.531C145.758 849.992 144.609 848.906 144 847.523C143.383 849.062 142.172 850.297 140.523 850.891L139.742 849.703C141.914 848.953 143.234 847.094 143.242 845.156V844.688H140.195V843.5H147.742V844.688H144.727V845.156ZM141.961 856.031V851.625H143.445V854.828H151.43V856.031H141.961ZM149.352 852.562V842.312H150.836V846.547H152.867V847.781H150.836V852.562H149.352ZM164.852 843.031V844.094C164.859 845.188 164.859 846.453 164.492 848.141H166.477V849.359H153.664V848.141H162.992C163.367 846.508 163.383 845.312 163.383 844.25H155.273V843.031H164.852ZM155.227 856.156V851.141H164.867V856.156H155.227ZM156.68 854.953H163.398V852.312H156.68V854.953ZM173.867 842.562C177.023 842.555 178.859 843.406 178.867 844.969C178.859 846.539 177.023 847.391 173.867 847.391C170.711 847.391 168.859 846.539 168.867 844.969C168.859 843.406 170.711 842.555 173.867 842.562ZM167.492 849.438V848.25H180.258V849.438H167.492ZM169.023 851.625V850.516H178.648V853.797H170.492V855.047H179.039V856.188H169.039V852.719H177.18V851.625H169.023ZM170.414 844.969C170.406 845.836 171.641 846.281 173.867 846.281C176.109 846.281 177.344 845.836 177.336 844.969C177.344 844.141 176.109 843.656 173.867 843.656C171.641 843.656 170.406 844.141 170.414 844.969ZM196.898 842.344V852.594H195.414V847.328H192.742V846.125H195.414V842.344H196.898ZM185.242 849.672C187.391 848.945 188.734 847.102 188.727 845.172V844.625H185.695V843.406H193.242V844.625H190.242V845.172C190.234 846.914 191.5 848.672 193.617 849.375L192.852 850.562C191.281 850.016 190.117 848.891 189.508 847.5C188.898 849.047 187.672 850.281 186.008 850.875L185.242 849.672ZM187.805 856.031V851.672H189.289V854.828H197.273V856.031H187.805ZM205.898 843.109V844.297H201.117V847.703C203.758 847.703 205.344 847.602 207.164 847.234L207.336 848.406C205.398 848.82 203.688 848.891 200.758 848.891H199.648V843.109H205.898ZM201.008 851.203V850.016H210.055V853.594H202.492V854.953H210.539V856.156H201.039V852.453H208.586V851.203H201.008ZM208.57 849.359V842.328H210.055V845.188H212.086V846.406H210.055V849.359H208.57ZM219.805 844.641V845.844H212.852V844.641H215.602V842.734H217.07V844.641H219.805ZM213.305 849.906C213.297 848.023 214.578 846.688 216.336 846.688C218.109 846.688 219.375 848.023 219.383 849.906C219.375 851.82 218.109 853.164 216.336 853.156C214.578 853.164 213.297 851.82 213.305 849.906ZM214.617 849.906C214.609 851.094 215.328 851.891 216.336 851.891C217.344 851.891 218.07 851.094 218.07 849.906C218.07 848.742 217.344 847.93 216.336 847.922C215.328 847.93 214.609 848.742 214.617 849.906ZM220.445 855.672V842.641H221.852V848.156H223.461V842.328H224.867V856.328H223.461V849.375H221.852V855.672H220.445ZM239.523 853.344V854.578H226.711V853.344H229.773V849.688C228.625 849.055 227.922 848.055 227.93 846.797C227.922 844.594 230.086 843.148 233.086 843.141C236.094 843.148 238.258 844.594 238.258 846.797C238.258 848.031 237.586 849.023 236.461 849.656V853.344H239.523ZM229.367 846.797C229.367 848.297 230.891 849.273 233.086 849.281C235.266 849.273 236.812 848.297 236.82 846.797C236.812 845.289 235.266 844.328 233.086 844.328C230.891 844.328 229.367 845.289 229.367 846.797ZM231.242 853.344H234.961V850.234C234.391 850.367 233.758 850.438 233.086 850.438C232.43 850.438 231.805 850.367 231.242 850.234V853.344ZM242.133 855.109C241.523 855.102 241.016 854.609 241.023 854C241.016 853.391 241.523 852.891 242.133 852.891C242.734 852.891 243.234 853.391 243.242 854C243.234 854.609 242.734 855.102 242.133 855.109Z" fill="#1F314E" fill-opacity="0.6"/>
</g>
<defs>
<filter id="filter0_d_342_737" x="30" y="246" width="300" height="215" filterUnits="userSpaceOnUse" color-interpolation-filters="sRGB">
<feFlood flood-opacity="0" result="BackgroundImageFix"/>
<feColorMatrix in="SourceAlpha" type="matrix" values="0 0 0 0 0 0 0 0 0 0 0 0 0 0 0 0 0 0 127 0" result="hardAlpha"/>
<feOffset dy="6"/>
<feGaussianBlur stdDeviation="10"/>
<feComposite in2="hardAlpha" operator="out"/>
<feColorMatrix type="matrix" values="0 0 0 0 0.121569 0 0 0 0 0.192157 0 0 0 0 0.305882 0 0 0 0.1 0"/>
<feBlend mode="normal" in2="BackgroundImageFix" result="effect1_dropShadow_342_737"/>
<feBlend mode="normal" in="SourceGraphic" in2="effect1_dropShadow_342_737" result="shape"/>
</filter>
<filter id="filter1_d_342_737" x="30" y="479" width="300" height="215" filterUnits="userSpaceOnUse" color-interpolation-filters="sRGB">
<feFlood flood-opacity="0" result="BackgroundImageFix"/>
<feColorMatrix in="SourceAlpha" type="matrix" values="0 0 0 0 0 0 0 0 0 0 0 0 0 0 0 0 0 0 127 0" result="hardAlpha"/>
<feOffset dy="6"/>
<feGaussianBlur stdDeviation="10"/>
<feComposite in2="hardAlpha" operator="out"/>
<feColorMatrix type="matrix" values="0 0 0 0 0.121569 0 0 0 0 0.192157 0 0 0 0 0.305882 0 0 0 0.1 0"/>
<feBlend mode="normal" in2="BackgroundImageFix" result="effect1_dropShadow_342_737"/>
<feBlend mode="normal" in="SourceGraphic" in2="effect1_dropShadow_342_737" result="shape"/>
</filter>
<filter id="filter2_d_342_737" x="26" y="712" width="300" height="215" filterUnits="userSpaceOnUse" color-interpolation-filters="sRGB">
<feFlood flood-opacity="0" result="BackgroundImageFix"/>
<feColorMatrix in="SourceAlpha" type="matrix" values="0 0 0 0 0 0 0 0 0 0 0 0 0 0 0 0 0 0 127 0" result="hardAlpha"/>
<feOffset dy="6"/>
<feGaussianBlur stdDeviation="10"/>
<feComposite in2="hardAlpha" operator="out"/>
<feColorMatrix type="matrix" values="0 0 0 0 0.121569 0 0 0 0 0.192157 0 0 0 0 0.305882 0 0 0 0.1 0"/>
<feBlend mode="normal" in2="BackgroundImageFix" result="effect1_dropShadow_342_737"/>
<feBlend mode="normal" in="SourceGraphic" in2="effect1_dropShadow_342_737" result="shape"/>
</filter>
</defs>
</svg>
