<svg width="33" height="35" viewBox="0 0 33 35" fill="none" xmlns="http://www.w3.org/2000/svg">
<path d="M11.5883 32.7708V27.4761C11.5883 26.1245 12.692 25.0288 14.0535 25.0288H19.0304C19.6842 25.0288 20.3112 25.2866 20.7736 25.7456C21.2359 26.2045 21.4956 26.827 21.4956 27.4761V32.7708C21.4915 33.3327 21.7134 33.873 22.1122 34.2718C22.511 34.6706 23.0536 34.8949 23.6197 34.8949H27.0151C28.6009 34.8989 30.1232 34.2764 31.246 33.1647C32.3688 32.0529 32.9998 30.5433 32.9998 28.969V13.8852C32.9998 12.6136 32.432 11.4073 31.4494 10.5914L19.8986 1.43339C17.8894 -0.172326 15.0105 -0.120482 13.0612 1.55652L1.77408 10.5914C0.745043 11.3832 0.130003 12.5931 0.0996094 13.8852V28.9537C0.0996094 32.2349 2.77904 34.8949 6.08428 34.8949H9.40221C10.5778 34.8949 11.5333 33.9532 11.5418 32.7862L11.5883 32.7708Z" fill="#D5DBE5"/>
<path d="M27.0151 34.8949H23.6197C23.0536 34.8949 22.511 34.6706 22.1122 34.2718C21.7134 33.873 21.4915 33.3327 21.4956 32.7708V27.4761C21.4956 26.827 21.2359 26.2045 20.7736 25.7456C20.3112 25.2866 19.6842 25.0288 19.0304 25.0288H14.0535C12.692 25.0288 11.5883 26.1245 11.5883 27.4761L27.0151 34.8949ZM27.0151 34.8949C28.6009 34.8989 30.1232 34.2764 31.246 33.1647C32.3688 32.0529 32.9998 30.5433 32.9998 28.969V13.8852C32.9998 12.6136 32.432 11.4073 31.4494 10.5914L27.0151 34.8949ZM11.0883 27.4761V32.4096L11.0444 32.4241L11.0418 32.7825C11.0353 33.6715 10.3065 34.3949 9.40221 34.3949H6.08428C3.05174 34.3949 0.599609 31.9553 0.599609 28.9537V13.8913C0.628101 12.7531 1.17057 11.6867 2.079 10.9877L2.07905 10.9878L2.08653 10.9818L13.3737 1.94687L13.3806 1.94133L13.3873 1.93556C15.1543 0.415436 17.765 0.36833 19.5865 1.82399L19.588 1.82519L31.1342 10.9796C32.0004 11.7009 32.4998 12.7648 32.4998 13.8852V28.969C32.4998 30.4093 31.9225 31.7911 30.8942 32.8094C29.8657 33.8277 28.4706 34.3986 27.0164 34.3949H27.0151H23.6197C23.1857 34.3949 22.7704 34.2229 22.4658 33.9182C22.1613 33.6137 21.9924 33.2019 21.9956 32.7745V32.7708V27.4761C21.9956 26.6932 21.6823 25.9432 21.1258 25.3907C20.5695 24.8384 19.8156 24.5288 19.0304 24.5288H14.0535C12.4193 24.5288 11.0883 25.8449 11.0883 27.4761Z" stroke="#D5DBE5" stroke-opacity="0.4"/>
</svg>
