<svg width="47" height="48" viewBox="0 0 47 48" fill="none" xmlns="http://www.w3.org/2000/svg">
<path opacity="0.6" d="M46.9999 15.0483C46.9999 23.3592 40.2625 30.0966 31.9516 30.0966C23.6407 30.0966 16.9033 23.3592 16.9033 15.0483C16.9033 6.73734 23.6407 0 31.9516 0C40.2625 0 46.9999 6.73734 46.9999 15.0483Z" fill="white"/>
<circle cx="16.5" cy="31.5" r="14.5" fill="white" stroke="white" stroke-width="4"/>
<path d="M16.5428 41C16.1606 41 15.8376 40.8671 15.574 40.6013C15.3104 40.3354 15.1785 40.0031 15.1785 39.6044V38.1291L15.7717 38.6674C14.8886 38.6275 14.124 38.5145 13.4781 38.3284C12.8322 38.1424 12.305 37.9563 11.8963 37.7702C11.5536 37.6107 11.3098 37.3847 11.1648 37.0923C11.033 36.7999 10.9802 36.5009 11.0066 36.1952C11.0461 35.8895 11.1582 35.6104 11.3427 35.3578C11.5273 35.1053 11.7645 34.9391 12.0545 34.8594C12.3577 34.7664 12.707 34.8062 13.1025 34.979C13.3661 35.1252 13.7615 35.2781 14.2888 35.4376C14.8292 35.5838 15.4949 35.6569 16.2858 35.6569C16.8394 35.6569 17.2744 35.6037 17.5908 35.4974C17.9203 35.391 18.151 35.2515 18.2828 35.0787C18.4278 34.8926 18.5003 34.6932 18.5003 34.4806C18.5003 34.2812 18.4476 34.1151 18.3421 33.9822C18.2498 33.836 18.0917 33.7097 17.8676 33.6034C17.6435 33.4837 17.3337 33.3774 16.9383 33.2844L14.704 32.8059C13.4781 32.5268 12.562 32.0616 11.9557 31.4103C11.3625 30.7457 11.0659 29.8884 11.0659 28.8384C11.0659 28.0409 11.257 27.3298 11.6393 26.7051C12.0348 26.0672 12.5818 25.5488 13.2804 25.1501C13.9922 24.7513 14.8226 24.4988 15.7717 24.3924L15.1785 24.7314V23.3956C15.1785 22.9969 15.3104 22.6646 15.574 22.3987C15.8376 22.1329 16.1606 22 16.5428 22C16.9383 22 17.2678 22.1329 17.5315 22.3987C17.7951 22.6646 17.9269 22.9969 17.9269 23.3956V24.7314L17.3337 24.3526C17.8346 24.3659 18.3751 24.4523 18.9551 24.6118C19.5351 24.758 20.0425 24.964 20.4775 25.2298C20.7807 25.3893 20.9916 25.6086 21.1102 25.8877C21.2421 26.1668 21.2882 26.4526 21.2487 26.745C21.2223 27.0241 21.1168 27.2767 20.9323 27.5026C20.7609 27.7286 20.5237 27.8814 20.2205 27.9612C19.9305 28.0276 19.5812 27.9745 19.1726 27.8017C18.8694 27.6688 18.5267 27.5624 18.1444 27.4827C17.7753 27.3896 17.3008 27.3431 16.7208 27.3431C16.0222 27.3431 15.4817 27.4694 15.0995 27.7219C14.7304 27.9745 14.5458 28.3001 14.5458 28.6988C14.5458 28.9647 14.6513 29.1906 14.8622 29.3767C15.0863 29.5495 15.4883 29.7023 16.0683 29.8353L18.3223 30.3337C19.5746 30.6128 20.4973 31.078 21.0905 31.7293C21.6968 32.3673 22 33.198 22 34.2214C22 35.0189 21.8089 35.7233 21.4266 36.3347C21.0443 36.9461 20.5105 37.4446 19.825 37.83C19.1528 38.2155 18.3685 38.468 17.4721 38.5876L17.9269 38.1091V39.6044C17.9269 40.0031 17.7951 40.3354 17.5315 40.6013C17.281 40.8671 16.9515 41 16.5428 41Z" fill="#498EF7"/>
</svg>
