<svg width="33" height="35" viewBox="0 0 33 35" fill="none" xmlns="http://www.w3.org/2000/svg">
<path d="M14.0535 25.0288C12.692 25.0288 11.5883 26.1245 11.5883 27.4761V32.7708L11.5418 32.7862C11.5333 33.9532 10.5778 34.8949 9.40221 34.8949H6.08428C2.77904 34.8949 0.0996094 32.2349 0.0996094 28.9537V13.8852C0.130003 12.5931 0.745043 11.3832 1.77408 10.5914L13.0612 1.55652C15.0105 -0.120482 17.8894 -0.172326 19.8986 1.43339L31.4494 10.5914C32.432 11.4073 32.9998 12.6136 32.9998 13.8852V28.969C32.9998 30.5433 32.3688 32.0529 31.246 33.1647C30.1232 34.2764 28.6009 34.8989 27.0151 34.8949H23.6197C23.0536 34.8949 22.511 34.6706 22.1122 34.2718C21.7134 33.873 21.4915 33.3327 21.4956 32.7708V27.4761C21.4956 26.827 21.2359 26.2045 20.7736 25.7456C20.3112 25.2866 19.6842 25.0288 19.0304 25.0288H14.0535Z" fill="white"/>
</svg>
