<svg width="48" height="40" viewBox="0 0 48 40" fill="none" xmlns="http://www.w3.org/2000/svg">
<path d="M45.5462 1.39795C46.242 1.39795 46.8055 1.97843 46.8055 2.69508V3.60126C46.8055 3.94892 46.6696 4.28277 46.4284 4.52626L42.5794 8.41954C42.513 8.48732 42.4229 8.52497 42.3296 8.52435L39.107 8.5143C39.0089 8.5143 38.9157 8.47225 38.8487 8.39883L35.3116 4.50869C35.0929 4.26834 34.9717 3.9508 34.9717 3.62134V2.69571C34.9717 1.97906 35.5352 1.39795 36.2309 1.39795H45.5462Z" fill="#D5DBE5"/>
<rect x="34" width="13.5612" height="2.54273" rx="1.27136" fill="#B1B9C7"/>
<path d="M45.5462 15.6021C46.242 15.6021 46.8055 15.0216 46.8055 14.3049V13.3987C46.8055 13.0511 46.6696 12.7172 46.4284 12.4737L42.5794 8.58046C42.513 8.51268 42.4229 8.47503 42.3296 8.47565L39.107 8.4857C39.0089 8.4857 38.9157 8.52775 38.8487 8.60117L35.3116 12.4913C35.0929 12.7317 34.9717 13.0492 34.9717 13.3787V14.3043C34.9717 15.0209 35.5352 15.6021 36.2309 15.6021H45.5462Z" fill="#D5DBE5"/>
<rect width="13.5612" height="2.54273" rx="1.27136" transform="matrix(1 0 0 -1 34 17)" fill="#B1B9C7"/>
<path d="M11.4887 37.5077V32.213C11.4887 30.8614 12.5924 29.7657 13.9539 29.7657H18.9308C19.5846 29.7657 20.2116 30.0236 20.6739 30.4825C21.1363 30.9415 21.396 31.5639 21.396 32.213V37.5077C21.3919 38.0696 21.6138 38.6099 22.0126 39.0087C22.4114 39.4075 22.954 39.6318 23.5201 39.6318H26.9155C28.5013 39.6359 30.0236 39.0133 31.1464 37.9016C32.2692 36.7899 32.9002 35.2803 32.9002 33.706V18.6222C32.9002 17.3505 32.3324 16.1442 31.3498 15.3284L19.799 6.17033C17.7898 4.56461 14.9109 4.61646 12.9616 6.29346L1.67447 15.3284C0.645434 16.1202 0.0303934 17.33 0 18.6222V33.6906C0 36.9718 2.67943 39.6318 5.98467 39.6318H9.3026C10.4782 39.6318 11.4337 38.6902 11.4422 37.5231L11.4887 37.5077Z" fill="#D5DBE5"/>
<path d="M26.9155 39.6318H23.5201C22.954 39.6318 22.4114 39.4075 22.0126 39.0087C21.6138 38.6099 21.3919 38.0696 21.396 37.5077V32.213C21.396 31.5639 21.1363 30.9415 20.6739 30.4825C20.2116 30.0236 19.5846 29.7657 18.9308 29.7657H13.9539C12.5924 29.7657 11.4887 30.8614 11.4887 32.213L26.9155 39.6318ZM26.9155 39.6318C28.5013 39.6359 30.0236 39.0133 31.1464 37.9016C32.2692 36.7899 32.9002 35.2803 32.9002 33.706V18.6222C32.9002 17.3505 32.3324 16.1442 31.3498 15.3284L26.9155 39.6318ZM10.9887 32.213V37.1465L10.9448 37.161L10.9422 37.5195C10.9357 38.4084 10.2069 39.1318 9.3026 39.1318H5.98467C2.95213 39.1318 0.5 36.6922 0.5 33.6906V18.6282C0.528492 17.4901 1.07096 16.4236 1.97939 15.7246L1.97944 15.7247L1.98692 15.7187L13.2741 6.68381L13.281 6.67827L13.2877 6.67249C15.0546 5.15237 17.6654 5.10527 19.4869 6.56093L19.4884 6.56212L31.0346 15.7165C31.9008 16.4379 32.4002 17.5018 32.4002 18.6222V33.706C32.4002 35.1463 31.8229 36.5281 30.7946 37.5463C29.7661 38.5646 28.371 39.1355 26.9168 39.1318H26.9155H23.5201C23.0861 39.1318 22.6708 38.9598 22.3662 38.6552C22.0616 38.3507 21.8928 37.9389 21.896 37.5114V37.5077V32.213C21.896 31.4301 21.5827 30.6801 21.0262 30.1277C20.4698 29.5754 19.716 29.2657 18.9308 29.2657H13.9539C12.3197 29.2657 10.9887 30.5818 10.9887 32.213Z" stroke="#D5DBE5" stroke-opacity="0.4"/>
</svg>
